<?xml version="1.0" standalone="no"?>
<!DOCTYPE svg PUBLIC "-//W3C//DTD SVG 1.1//EN" "http://www.w3.org/Graphics/SVG/1.1/DTD/svg11.dtd" >
<svg xmlns="http://www.w3.org/2000/svg" xmlns:xlink="http://www.w3.org/1999/xlink" version="1.1">
<metadata>
Created by FontForge 20170731 at Wed Aug 26 12:36:46 2015
 By Aleksey,,,
DJB Get Digital (c) DJB Fonts. 2015. All Rights Reserved
</metadata>
<defs>
<font id="DJBGetDigital" horiz-adv-x="0" >
  <font-face 
    font-family="DJB Get Digital"
    font-weight="400"
    font-stretch="normal"
    units-per-em="2048"
    panose-1="2 0 5 0 0 0 0 0 0 0"
    ascent="1638"
    descent="-410"
    x-height="1093"
    cap-height="1487"
    bbox="-39 -634 1597 1823"
    underline-thickness="150"
    underline-position="-442"
    unicode-range="U+0020-F002"
  />
<missing-glyph horiz-adv-x="1024" 
d="M100 0v1434h824v-1434h-824zM150 50h724v1334h-724v-1334zM325 1148q31 28 58 43q53 30 112 30q92 0 148 -47.5t56 -127.5q0 -49 -23 -98.5t-87 -129.5q-63 -80 -99 -132t-36 -99q0 -38 24 -133h-32q-35 97 -35 148q0 76 81.5 218t81.5 217q0 57 -33 90t-91 33
q-38 0 -69 -17q-26 -15 -56 -40v45zM389 334l57 58q11 10 20 10q10 0 22 -11l56 -60q9 -11 9 -20q0 -11 -10 -22l-56 -62q-14 -14 -21 -14q-11 0 -20 10l-61 71q-7 9 -7 18q0 10 11 22z" />
    <glyph glyph-name=".notdef" horiz-adv-x="1024" 
d="M100 0v1434h824v-1434h-824zM150 50h724v1334h-724v-1334zM325 1148q31 28 58 43q53 30 112 30q92 0 148 -47.5t56 -127.5q0 -49 -23 -98.5t-87 -129.5q-63 -80 -99 -132t-36 -99q0 -38 24 -133h-32q-35 97 -35 148q0 76 81.5 218t81.5 217q0 57 -33 90t-91 33
q-38 0 -69 -17q-26 -15 -56 -40v45zM389 334l57 58q11 10 20 10q10 0 22 -11l56 -60q9 -11 9 -20q0 -11 -10 -22l-56 -62q-14 -14 -21 -14q-11 0 -20 10l-61 71q-7 9 -7 18q0 10 11 22z" />
    <glyph glyph-name=".null" 
 />
    <glyph glyph-name="nonmarkingreturn" horiz-adv-x="508" 
 />
    <glyph glyph-name="space" unicode=" " horiz-adv-x="597" 
 />
    <glyph glyph-name="space" unicode="&#xa0;" horiz-adv-x="597" 
 />
    <glyph glyph-name="exclam" unicode="!" horiz-adv-x="397" 
d="M308 745v-398l-101 -104l-99 103v398l100 103zM303 1393v-398l-101 -104l-99 103v398l100 103zM108 102l103 92l100 -102l-2 -112l-101 -104l-99 103z" />
    <glyph glyph-name="quotedbl" unicode="&#x22;" horiz-adv-x="680" 
d="M119 1375v27l100 103l100 -102v-116h-2v-74l-101 -104l-99 103v163h2zM394 1375v27l100 103l100 -102v-116h-2v-74l-101 -104l-99 103v163h2z" />
    <glyph glyph-name="numbersign" unicode="#" horiz-adv-x="1295" 
d="M217 841h-27l-103 100l102 100h116v-2h74l104 -101l-103 -99h-163v2zM606 619v-27l-100 -103l-100 102v116h2v74l101 104l99 -103v-163h-2zM608 1108v-27l-100 -103l-100 102v116h2v74l101 104l99 -103v-163h-2zM932 841h-27l-103 100l102 100h116v-2h74l104 -101
l-103 -99h-163v2zM890 629v-27l-100 -103l-100 102v116h2v74l101 104l99 -103v-163h-2zM872 1120v-27l-100 -103l-100 102v116h2v74l101 104l99 -103v-163h-2z" />
    <glyph glyph-name="dollar" unicode="$" horiz-adv-x="1021" 
d="M314 378h398l104 -101l-103 -99h-398l-103 100zM300 832h398l104 -101l-103 -99h-398l-103 100zM303 1276h398l104 -101l-103 -99h-398l-103 100zM286 892v-27l-100 -103l-100 102v116h2v74l101 104l99 -103v-163h-2zM930 445v-27l-100 -103l-100 102v116h2v74l101 104
l99 -103v-163h-2zM384 1532l103 92l100 -102l-2 -112l-101 -104l-99 103zM406 68l103 92l100 -102l-2 -112l-101 -104l-99 103z" />
    <glyph glyph-name="percent" unicode="%" horiz-adv-x="1553" 
d="M844 597l-203 -528l-132 -61l-55 132l202 527l130 61zM1133 1365l-204 -533l-132 -61l-56 132l204 533l131 60zM355 1305h-27l-103 100l102 100h116v-2h74l104 -101l-103 -99h-163v2zM306 1107v-27l-100 -103l-100 102v116h2v74l101 104l99 -103v-163h-2zM735 1112v-27
l-100 -103l-100 102v116h2v74l101 104l99 -103v-163h-2zM491 1053h27l103 -100l-102 -100h-116v2h-74l-104 101l103 99h163v-2zM1085 460h-27l-103 100l102 100h116v-2h74l104 -101l-103 -99h-163v2zM1036 262v-27l-100 -103l-100 102v116h2v74l101 104l99 -103v-163h-2z
M1465 267v-27l-100 -103l-100 102v116h2v74l101 104l99 -103v-163h-2zM1221 208h27l103 -100l-102 -100h-116v2h-74l-104 101l103 99h163v-2z" />
    <glyph glyph-name="ampersand" unicode="&#x26;" horiz-adv-x="1196" 
d="M316 209h398l104 -101l-103 -99h-398l-103 100zM300 629v-398l-101 -104l-99 103v398l100 103zM928 1278v-398l-101 -104l-99 103v398l100 103zM295 1277v-398l-101 -104l-99 103v398l100 103zM312 857h398l104 -101l-103 -99h-398l-103 100zM315 1498h398l104 -101
l-103 -99h-398l-103 100zM812 428l295 -267l9 -145l-143 -4l-295 268l-9 143z" />
    <glyph glyph-name="quotesingle" unicode="'" horiz-adv-x="392" 
d="M116 1381v27l100 103l100 -102v-116h-2v-74l-101 -104l-99 103v163h2z" />
    <glyph glyph-name="parenleft" unicode="(" horiz-adv-x="718" 
d="M300 629v-398l-101 -104l-99 103v398l100 103zM295 1277v-398l-101 -104l-99 103v398l100 103zM347 1305h-27l-103 100l102 100h116v-2h74l104 -101l-103 -99h-163v2zM357 4h-27l-103 100l102 100h116v-2h74l104 -101l-103 -99h-163v2z" />
    <glyph glyph-name="parenright" unicode=")" horiz-adv-x="718" 
d="M518 731l100 -103v-398l-99 -103l-101 104v398zM523 1379l100 -103v-398l-99 -103l-101 104v398zM371 1303h-163l-103 99l104 101h74v2h116l102 -100l-103 -100h-27v-2zM361 2h-163l-103 99l104 101h74v2h116l102 -100l-103 -100h-27v-2z" />
    <glyph glyph-name="asterisk" unicode="*" horiz-adv-x="770" 
d="M417 920l-19 19l-4 144l143 -1l83 -81l-1 -2l52 -51l4 -145l-143 1l-116 115zM93 1243l-20 19l-3 143h143l83 -81l-2 -2l53 -52l3 -145l-143 2l-116 114zM243 825l-19 -20l-143 -3v143l81 83l2 -2l52 53l145 3l-2 -142l-114 -117zM558 1142l-19 -19l-144 -3l1 143l82 82
l2 -1l52 52l145 3l-3 -143l-115 -115z" />
    <glyph glyph-name="plus" unicode="+" horiz-adv-x="1048" 
d="M685 697h-27l-103 100l102 100h116v-2h74l104 -101l-103 -99h-163v2zM231 699h-27l-103 100l102 100h116v-2h74l104 -101l-103 -99h-163v2zM620 477v-27l-100 -103l-100 102v116h2v74l101 104l99 -103v-163h-2zM622 966v-27l-100 -103l-100 102v116h2v74l101 104l99 -103
v-163h-2z" />
    <glyph glyph-name="comma" unicode="," horiz-adv-x="392" 
d="M103 77v27l100 103l100 -102v-116h-2v-74l-101 -104l-99 103v163h2z" />
    <glyph glyph-name="hyphen" unicode="-" horiz-adv-x="802" 
d="M209 857h398l104 -101l-103 -99h-398l-103 100z" />
    <glyph glyph-name="hyphen" unicode="&#xad;" horiz-adv-x="802" 
d="M209 857h398l104 -101l-103 -99h-398l-103 100z" />
    <glyph glyph-name="period" unicode="." horiz-adv-x="402" 
d="M97 227l103 100l100 -102l-2 -109l-101 -104l-99 103z" />
    <glyph glyph-name="slash" unicode="/" horiz-adv-x="853" 
d="M491 605l-203 -528l-131 -61l-56 132l203 527l130 61zM779 1373l-204 -533l-131 -61l-56 132l204 533l130 60z" />
    <glyph glyph-name="zero" unicode="0" horiz-adv-x="1014" 
d="M316 209h398l104 -101l-103 -99h-398l-103 100zM300 629v-398l-101 -104l-99 103v398l100 103zM928 1278v-398l-101 -104l-99 103v398l100 103zM295 1277v-398l-101 -104l-99 103v398l100 103zM315 1498h398l104 -101l-103 -99h-398l-103 100zM929 629v-398l-101 -104
l-99 103v398l100 103z" />
    <glyph glyph-name="one" unicode="1" horiz-adv-x="393" 
d="M300 629l5 -490l-101 -104l-99 103l-5 490l100 103zM295 1385v-506l-101 -104l-99 103v506l100 103z" />
    <glyph glyph-name="two" unicode="2" horiz-adv-x="1014" 
d="M316 209h398l104 -101l-103 -99h-398l-103 100zM300 629v-398l-101 -104l-99 103v398l100 103zM928 1278v-398l-101 -104l-99 103v398l100 103zM312 857h398l104 -101l-103 -99h-398l-103 100zM315 1498h398l104 -101l-103 -99h-398l-103 100z" />
    <glyph glyph-name="three" unicode="3" horiz-adv-x="1014" 
d="M316 209h398l104 -101l-103 -99h-398l-103 100zM928 1278v-398l-101 -104l-99 103v398l100 103zM312 857h398l104 -101l-103 -99h-398l-103 100zM315 1498h398l104 -101l-103 -99h-398l-103 100zM929 629v-398l-101 -104l-99 103v398l100 103z" />
    <glyph glyph-name="four" unicode="4" horiz-adv-x="1014" 
d="M930 1387l-2 -507l-101 -104l-99 103l2 507l100 103zM297 1386l-2 -507l-101 -104l-99 103l2 507l100 103zM312 857h398l104 -101l-103 -99h-398l-103 100zM929 629v-512l-101 -104l-99 103v512l100 103z" />
    <glyph glyph-name="five" unicode="5" horiz-adv-x="1014" 
d="M316 209h398l104 -101l-103 -99h-398l-103 100zM295 1277v-398l-101 -104l-99 103v398l100 103zM312 857h398l104 -101l-103 -99h-398l-103 100zM315 1498h398l104 -101l-103 -99h-398l-103 100zM929 629v-398l-101 -104l-99 103v398l100 103z" />
    <glyph glyph-name="six" unicode="6" horiz-adv-x="1014" 
d="M316 209h398l104 -101l-103 -99h-398l-103 100zM300 629v-398l-101 -104l-99 103v398l100 103zM295 1277v-398l-101 -104l-99 103v398l100 103zM312 857h398l104 -101l-103 -99h-398l-103 100zM315 1498h398l104 -101l-103 -99h-398l-103 100zM929 629v-398l-101 -104
l-99 103v398l100 103z" />
    <glyph glyph-name="seven" unicode="7" horiz-adv-x="1014" 
d="M928 1278l-3 -447l-101 -104l-99 103l3 447l100 103zM315 1498h398l104 -101l-103 -99h-398l-103 100zM926 580l3 -452l-101 -104l-99 103l-3 452l100 103z" />
    <glyph glyph-name="eight" unicode="8" horiz-adv-x="1014" 
d="M316 209h398l104 -101l-103 -99h-398l-103 100zM300 629v-398l-101 -104l-99 103v398l100 103zM928 1278v-398l-101 -104l-99 103v398l100 103zM295 1277v-398l-101 -104l-99 103v398l100 103zM312 857h398l104 -101l-103 -99h-398l-103 100zM315 1498h398l104 -101
l-103 -99h-398l-103 100zM929 629v-398l-101 -104l-99 103v398l100 103z" />
    <glyph glyph-name="nine" unicode="9" horiz-adv-x="1014" 
d="M928 1278v-398l-101 -104l-99 103v398l100 103zM295 1277v-398l-101 -104l-99 103v398l100 103zM312 857h398l104 -101l-103 -99h-398l-103 100zM315 1498h398l104 -101l-103 -99h-398l-103 100zM929 629l3 -498l-101 -104l-99 103l-3 498l100 103z" />
    <glyph glyph-name="colon" unicode=":" horiz-adv-x="408" 
d="M268 983q31 -33 31 -80t-31 -80t-76 -33q-44 0 -75.5 33t-31.5 80t31.5 80t75.5 33q45 0 76 -33zM288 490q31 -33 31 -80t-31 -80t-76 -33q-44 0 -75.5 33t-31.5 80t31.5 80t75.5 33q45 0 76 -33z" />
    <glyph glyph-name="semicolon" unicode=";" horiz-adv-x="392" 
d="M103 77v27l100 103l100 -102v-116h-2v-74l-101 -104l-99 103v163h2zM100 758l103 100l100 -102l-2 -109l-101 -104l-99 103z" />
    <glyph glyph-name="semicolon" unicode="&#x37e;" horiz-adv-x="392" 
d="M103 77v27l100 103l100 -102v-116h-2v-74l-101 -104l-99 103v163h2zM100 758l103 100l100 -102l-2 -109l-101 -104l-99 103z" />
    <glyph glyph-name="less" unicode="&#x3c;" horiz-adv-x="667" 
d="M106 815l281 282l145 2l-3 -142l-280 -283l-144 -2zM242 582l286 -277l4 -145l-143 1l-286 277l-4 143z" />
    <glyph glyph-name="equal" unicode="=" horiz-adv-x="802" 
d="M212 927h398l104 -101l-103 -99h-398l-103 100zM215 657h398l104 -101l-103 -99h-398l-103 100z" />
    <glyph glyph-name="greater" unicode="&#x3e;" horiz-adv-x="651" 
d="M528 677l-143 2l-281 283l-2 142l145 -2l280 -282zM534 586l-4 -143l-286 -277l-143 -1l4 145l286 277z" />
    <glyph glyph-name="question" unicode="?" horiz-adv-x="944" 
d="M856 1277l-3 -341l-101 -104l-99 103l3 341l100 103zM315 913h320l104 -101l-103 -99h-320l-103 100zM243 1497h398l104 -101l-103 -99h-398l-103 100zM105 127l103 100l100 -102l-2 -109l-101 -104l-99 103zM303 671l3 -309l-101 -104l-99 103l-3 309l100 103z" />
    <glyph glyph-name="at" unicode="@" horiz-adv-x="1055" 
d="M571 724h-27l-103 100l102 100h116v-2h74l104 -101l-103 -99h-163v2zM522 526v-27l-100 -103l-100 102v116h2v74l101 104l99 -103v-163h-2zM951 531v-27l-100 -103l-100 102v116h2v74l101 104l99 -103v-163h-2zM707 472h27l103 -100l-102 -100h-116v2h-74l-104 101
l103 99h163v-2zM301 1119v-398l-101 -104l-99 103v398l100 103zM732 1150h-398l-104 101l103 99h398l103 -100zM758 1109l-1 27l97 106l103 -99l4 -116h-2l2 -74l-98 -107l-102 100l-5 163h2zM298 495v-273l-101 -104l-99 103v273l100 103zM333 201h398l104 -101l-103 -99
h-398l-103 100z" />
    <glyph glyph-name="A" unicode="A" horiz-adv-x="1013" 
d="M295 629v-512l-101 -104l-99 103v512l100 103zM923 1278v-398l-101 -104l-99 103v398l100 103zM290 1277v-398l-101 -104l-99 103v398l100 103zM307 857h398l104 -101l-103 -99h-398l-103 100zM310 1498h398l104 -101l-103 -99h-398l-103 100zM924 629v-512l-101 -104
l-99 103v512l100 103z" />
    <glyph glyph-name="B" unicode="B" horiz-adv-x="1014" 
d="M316 209h398l104 -101l-103 -99l-579 -2zM300 629v-398l-201 -226l1 623l100 103zM928 1278v-398l-101 -104l-99 103v398l100 103zM295 1277v-398l-101 -104l-99 103l4 604l96 -103zM312 857h398l104 -101l-103 -99h-398l-103 100zM116 1501l597 -3l104 -101l-103 -99
h-398l-103 100zM929 629v-398l-101 -104l-99 103v398l100 103z" />
    <glyph glyph-name="C" unicode="C" horiz-adv-x="921" 
d="M316 209h398l104 -101l-103 -99h-398l-103 100zM300 629v-398l-101 -104l-99 103v398l100 103zM295 1277v-398l-101 -104l-99 103v398l100 103zM315 1498h398l104 -101l-103 -99h-398l-103 100z" />
    <glyph glyph-name="D" unicode="D" horiz-adv-x="1014" 
d="M316 209h398l104 -101l-103 -99h-579l78 100zM300 629v-398l-101 -104l-102 -118l3 619l100 103zM928 1278v-398l-101 -104l-99 103v398l100 103zM295 1277v-398l-101 -104l-99 103v620l100 -119zM115 1503l598 -5l104 -101l-103 -99h-398l-103 100zM929 629v-398
l-101 -104l-99 103v398l100 103z" />
    <glyph glyph-name="E" unicode="E" horiz-adv-x="923" 
d="M316 209h398l104 -101l-103 -99h-398l-103 100zM300 629v-398l-101 -104l-99 103v398l100 103zM295 1277v-398l-101 -104l-99 103v398l100 103zM312 857h398l104 -101l-103 -99h-398l-103 100zM315 1498h398l104 -101l-103 -99h-398l-103 100z" />
    <glyph glyph-name="F" unicode="F" horiz-adv-x="921" 
d="M300 629l3 -500l-101 -104l-99 103l-3 500l100 103zM295 1277v-398l-101 -104l-99 103v398l100 103zM312 857h398l104 -101l-103 -99h-398l-103 100zM315 1498h398l104 -101l-103 -99h-398l-103 100z" />
    <glyph glyph-name="G" unicode="G" horiz-adv-x="1014" 
d="M316 209h398l104 -101l-103 -99h-398l-103 100zM300 629v-398l-101 -104l-99 103v398l100 103zM295 1277v-398l-101 -104l-99 103v398l100 103zM315 1498h398l104 -101l-103 -99h-398l-103 100zM929 629v-398l-101 -104l-99 103v398l100 103zM544 657h-27l-103 100
l102 100h116v-2h74l104 -101l-103 -99h-163v2z" />
    <glyph glyph-name="H" unicode="H" horiz-adv-x="1014" 
d="M300 629l-2 -493l-101 -104l-99 103l2 493l100 103zM925 1375l3 -495l-101 -104l-99 103l-3 495l100 103zM292 1374l3 -495l-101 -104l-99 103l-3 495l100 103zM312 857h398l104 -101l-103 -99h-398l-103 100zM929 629l-2 -493l-101 -104l-99 103l2 493l100 103z" />
    <glyph glyph-name="I" unicode="I" horiz-adv-x="393" 
d="M300 629l5 -490l-101 -104l-99 103l-5 490l100 103zM295 1385v-506l-101 -104l-99 103v506l100 103z" />
    <glyph glyph-name="J" unicode="J" horiz-adv-x="907" 
d="M194 209h398l104 -101l-103 -99h-398l-103 100zM809 1396v-446l-101 -104l-99 103v446l100 103zM812 710l-5 -479l-101 -104l-99 103l5 479l100 103z" />
    <glyph glyph-name="K" unicode="K" horiz-adv-x="1014" 
d="M300 629l-2 -516l-101 -104l-99 103l2 516l100 103zM851 1259l-383 -377l-145 2l7 143l383 377l143 -2zM303 1396l-8 -517l-101 -104l-99 103l8 517l100 103zM312 857h398l104 -101l-103 -99h-398l-103 100zM929 629l2 -498l-101 -104l-99 103l-2 498l100 103z" />
    <glyph glyph-name="L" unicode="L" horiz-adv-x="887" 
d="M316 209h398l104 -101l-103 -99h-398l-103 100zM302 689l-2 -458l-101 -104l-99 103l2 458l100 103zM297 1396v-457l-101 -104l-99 103v457l100 103z" />
    <glyph glyph-name="M" unicode="M" horiz-adv-x="1211" 
d="M300 629v-511l-101 -104l-99 103v511l100 103zM1118 1393v-512l-101 -104l-99 103v512l100 103zM295 1391v-512l-101 -104l-99 103v512l100 103zM1113 633v-511l-101 -104l-99 103v511l100 103zM993 1499l-236 -242l-144 -6l-2 143l96 105h286zM496 1498l99 -107l-3 -143
l-143 6l-237 244h284z" />
    <glyph glyph-name="N" unicode="N" horiz-adv-x="1199" 
d="M300 629v-511l-101 -104l-99 103v511l100 103zM1093 1393v-512l-101 -104l-99 103v512l100 103zM295 1391v-512l-101 -104l-99 103v512l100 103zM1094 632v-511l-101 -104l-99 103v511l100 103zM709 903l-382 365l1 145l143 -6l382 -365l-1 -143z" />
    <glyph glyph-name="O" unicode="O" horiz-adv-x="1014" 
d="M316 209h398l104 -101l-103 -99h-398l-103 100zM300 629v-398l-101 -104l-99 103v398l100 103zM928 1278v-398l-101 -104l-99 103v398l100 103zM295 1277v-398l-101 -104l-99 103v398l100 103zM315 1498h398l104 -101l-103 -99h-398l-103 100zM929 629v-398l-101 -104
l-99 103v398l100 103z" />
    <glyph glyph-name="P" unicode="P" horiz-adv-x="1014" 
d="M300 629l-3 -509l-101 -104l-99 103l3 509l100 103zM928 1278v-398l-101 -104l-99 103v398l100 103zM295 1277v-398l-101 -104l-99 103v398l100 103zM312 857h398l104 -101l-103 -99h-398l-103 100zM315 1498h398l104 -101l-103 -99h-398l-103 100z" />
    <glyph glyph-name="Q" unicode="Q" horiz-adv-x="1014" 
d="M715 9h-398l-103 100l102 100h229l188 -182zM300 629v-398l-101 -104l-99 103v398l100 103zM928 1278v-398l-101 -104l-99 103v398l100 103zM295 1277v-398l-101 -104l-99 103v398l100 103zM521 403l143 7l298 -264l12 -142l-145 -7l-298 264zM315 1498h398l104 -101
l-103 -99h-398l-103 100zM729 628l100 103l100 -102v-396l-200 171v224z" />
    <glyph glyph-name="R" unicode="R" horiz-adv-x="1014" 
d="M300 629l5 -516l-101 -104l-99 103l-5 516l100 103zM928 1278v-398l-101 -104l-99 103v398l100 103zM295 1277v-398l-101 -104l-99 103l-2 628zM312 857h398l104 -101l-103 -99h-398l-103 100zM129 1508l584 -10l104 -101l-103 -99h-398zM826 8l-409 472l-3 145l143 -2
l409 -472l3 -143h-143z" />
    <glyph glyph-name="S" unicode="S" horiz-adv-x="1014" 
d="M316 209h398l104 -101l-103 -99h-398l-103 100zM295 1277v-398l-101 -104l-99 103v398l100 103zM312 857h398l104 -101l-103 -99h-398l-103 100zM315 1498h398l104 -101l-103 -99h-398l-103 100zM929 629v-398l-101 -104l-99 103v398l100 103z" />
    <glyph glyph-name="T" unicode="T" horiz-adv-x="1037" 
d="M612 629l5 -500l-101 -104l-99 103l-5 500l100 103zM607 1277v-398l-101 -104l-99 103v398l100 103zM636 1295l-103 100l102 100h244l104 -101l-103 -99h-244zM135 1299l-103 99l104 101h244l102 -100l-103 -100h-244z" />
    <glyph glyph-name="U" unicode="U" horiz-adv-x="1014" 
d="M200 780l-100 103v512l99 103l101 -104v-512zM828 131l-100 103v398l99 103l101 -104v-398zM195 132l-100 103v398l99 103l101 -104v-398zM213 113l103 100h398l103 -99l-104 -101h-398zM829 780l-100 103v512l99 103l101 -104v-512z" />
    <glyph glyph-name="V" unicode="V" horiz-adv-x="1014" 
d="M332 241l365 491l145 8l3 -143l-366 -491l-143 -7zM301 654l-1 -537l-101 -104l-99 103l1 537l100 103zM934 1392l-5 -487l-101 -104l-99 103l5 487l100 103zM301 1391l-5 -487l-101 -104l-99 103l5 487l100 103z" />
    <glyph glyph-name="W" unicode="W" horiz-adv-x="1211" 
d="M200 782l-100 103v511l99 103l101 -104v-511zM1018 18l-100 103v512l99 103l101 -104v-512zM195 20l-100 103v512l99 103l101 -104v-512zM1013 778l-100 103v511l99 103l101 -104v-511zM707 15l-96 104l2 143l144 -6l236 -242zM212 16l237 243l143 6l3 -143l-99 -107z
" />
    <glyph glyph-name="X" unicode="X" horiz-adv-x="1037" 
d="M500 578l-235 -525l-135 -51l-46 135l235 525l134 51zM720 663l240 -523l-51 -136l-131 55l-241 523l51 134zM953 1358l-244 -552l-135 -51l-46 135l244 552l134 51zM265 1449l231 -550l-51 -136l-131 55l-232 550l51 134z" />
    <glyph glyph-name="Y" unicode="Y" horiz-adv-x="1014" 
d="M926 1394l2 -514l-101 -104l-99 103l-2 514l100 103zM293 1393l2 -514l-101 -104l-99 103l-2 514l100 103zM312 857h398l104 -101l-103 -99h-398l-103 100zM632 526v-398l-101 -104l-99 103v398l100 103z" />
    <glyph glyph-name="Z" unicode="Z" horiz-adv-x="1037" 
d="M443 214h398l104 -101l-103 -99h-398l-103 100zM189 1501h398l104 -101l-103 -99h-398l-103 100zM910 1305l-235 -483l-137 -47l-42 137l236 483l136 46zM573 620l-205 -411l-137 -47l-42 137l206 411l136 46z" />
    <glyph glyph-name="bracketleft" unicode="[" horiz-adv-x="718" 
d="M300 629v-398l-101 -104l-99 103v398l100 103zM295 1277v-398l-101 -104l-99 103v398l100 103zM347 1305h-27l-103 100l102 100h116v-2h74l104 -101l-103 -99h-163v2zM357 4h-27l-103 100l102 100h116v-2h74l104 -101l-103 -99h-163v2z" />
    <glyph glyph-name="backslash" unicode="\" horiz-adv-x="853" 
d="M446 736l131 -61l202 -527l-56 -132l-131 61l-203 528zM158 1504l130 -60l204 -533l-56 -132l-131 61l-204 533z" />
    <glyph glyph-name="bracketright" unicode="]" horiz-adv-x="718" 
d="M518 731l100 -103v-398l-99 -103l-101 104v398zM523 1379l100 -103v-398l-99 -103l-101 104v398zM371 1303h-163l-103 99l104 101h74v2h116l102 -100l-103 -100h-27v-2zM361 2h-163l-103 99l104 101h74v2h116l102 -100l-103 -100h-27v-2z" />
    <glyph glyph-name="asciicircum" unicode="^" horiz-adv-x="1671" 
d="M250 552v-27l-100 -103l-100 102v116h2v74l101 104l99 -103v-163h-2zM244 140v-27l-100 -103l-100 102v116h2v74l101 104l99 -103v-163h-2zM329 318h-27l-103 100l102 100h116v-2h74l104 -101l-103 -99h-163v2zM244 140v-27l-100 -103l-100 102v116h2v74l101 104l99 -103
v-163h-2zM691 590v-27l-100 -103l-100 102v116h2v74l101 104l99 -103v-163h-2zM717 137v-27l-100 -103l-100 102v116h2v74l101 104l99 -103v-163h-2zM297 751h-27l-103 100l102 100h116v-2h74l104 -101l-103 -99h-163v2zM975 543v-27l-100 -103l-100 102v116h2v74l101 104
l99 -103v-163h-2zM969 131v-27l-100 -103l-100 102v116h2v74l101 104l99 -103v-163h-2zM969 131v-27l-100 -103l-100 102v116h2v74l101 104l99 -103v-163h-2zM1585 140v-27l-100 -103l-100 102v116h2v74l101 104l99 -103v-163h-2zM910 814l-18 19l3 144l143 -7l79 -85l-2 -1
l50 -55l-3 -144l-142 8l-111 119zM1595 556v-27l-100 -103l-100 102v116h2v74l101 104l99 -103v-163h-2zM1317 955l20 19h143l-3 -143l-83 -81l-1 1l-53 -51l-145 -1l4 143l117 114z" />
    <glyph glyph-name="underscore" unicode="_" horiz-adv-x="794" 
d="M200 107h398l104 -101l-103 -99h-398l-103 100z" />
    <glyph glyph-name="grave" unicode="`" horiz-adv-x="1688" 
d="M250 552v-27l-100 -103l-100 102v116h2v74l101 104l99 -103v-163h-2zM244 140v-27l-100 -103l-100 102v116h2v74l101 104l99 -103v-163h-2zM329 318h-27l-103 100l102 100h116v-2h74l104 -101l-103 -99h-163v2zM244 140v-27l-100 -103l-100 102v116h2v74l101 104l99 -103
v-163h-2zM691 590v-27l-100 -103l-100 102v116h2v74l101 104l99 -103v-163h-2zM297 751h-27l-103 100l102 100h116v-2h74l104 -101l-103 -99h-163v2zM975 543v-27l-100 -103l-100 102v116h2v74l101 104l99 -103v-163h-2zM969 131v-27l-100 -103l-100 102v116h2v74l101 104
l99 -103v-163h-2zM969 131v-27l-100 -103l-100 102v116h2v74l101 104l99 -103v-163h-2zM1585 140v-27l-100 -103l-100 102v116h2v74l101 104l99 -103v-163h-2zM910 814l-18 19l3 144l143 -7l79 -85l-2 -1l50 -55l-3 -144l-142 8l-111 119zM1595 556v-27l-100 -103l-100 102
v116h2v74l101 104l99 -103v-163h-2zM1317 955l20 19h143l-3 -143l-83 -81l-1 1l-53 -51l-145 -1l4 143l117 114z" />
    <glyph glyph-name="a" unicode="a" horiz-adv-x="1014" 
d="M696 907h-398l-104 101l103 99h398l103 -100zM710 453h-398l-104 101l103 99h398l103 -100zM707 9h-398l-104 101l103 99h398l103 -100zM724 393v27l100 103l100 -102v-116h-2v-74l-101 -104l-99 103v163h2zM95 396v27l100 103l100 -102v-116h-2v-74l-101 -104l-99 103
v163h2zM725 850v27l100 103l100 -102v-116h-2v-74l-101 -104l-99 103v163h2z" />
    <glyph glyph-name="b" unicode="b" horiz-adv-x="1014" 
d="M197 148l-100 103l-3 626l99 103l101 -104l3 -626zM212 999l103 100h398l103 -99l-104 -101h-398zM213 116l103 100h398l103 -99l-104 -101h-398zM182 1014l-100 103v281l99 103l101 -104v-281zM836 146l-100 103l-3 626l99 103l101 -104l3 -626z" />
    <glyph glyph-name="c" unicode="c" horiz-adv-x="910" 
d="M194 154l-100 103l-3 626l99 103l101 -104l3 -626zM210 1007l103 100h398l103 -99l-104 -101h-398zM213 116l103 100h398l103 -99l-104 -101h-398z" />
    <glyph glyph-name="d" unicode="d" horiz-adv-x="1014" 
d="M729 240l3 626l101 104l99 -103l-3 -626l-100 -103zM711 907h-398l-104 101l103 99h398l103 -100zM708 16h-398l-104 101l103 99h398l103 -100zM736 1140v281l101 104l99 -103v-281l-100 -103zM87 248l3 626l101 104l99 -103l-3 -626l-100 -103z" />
    <glyph glyph-name="e" unicode="e" horiz-adv-x="1014" 
d="M322 209h398l104 -101l-103 -99h-398l-103 100zM308 663h398l104 -101l-103 -99h-398l-103 100zM311 1107h398l104 -101l-103 -99h-398l-103 100zM294 723v-27l-100 -103l-100 102v116h2v74l101 104l99 -103v-163h-2zM923 720v-27l-100 -103l-100 102v116h2v74l101 104
l99 -103v-163h-2zM293 266v-27l-100 -103l-100 102v116h2v74l101 104l99 -103v-163h-2z" />
    <glyph glyph-name="f" unicode="f" horiz-adv-x="702" 
d="M300 629l3 -500l-101 -104l-99 103l-3 500l100 103zM295 1277v-398l-101 -104l-99 103v398l100 103zM382 659h-27l-103 100l102 100h116v-2h74l104 -101l-103 -99h-163v2zM348 1316h-27l-103 100l102 100h116v-2h74l104 -101l-103 -99h-163v2z" />
    <glyph glyph-name="g" unicode="g" horiz-adv-x="1033" 
d="M849 950l100 -103l3 -626l-99 -103l-101 104l-3 626zM826 107l-103 -100h-398l-103 99l104 101h398zM823 998l-103 -100h-398l-103 99l104 101h398zM849 76l100 -103v-281l-99 -103l-101 104v281zM200 968l100 -103l3 -626l-99 -103l-101 104l-3 626zM829 -435l-103 -100
h-398l-103 99l104 101h398z" />
    <glyph glyph-name="h" unicode="h" horiz-adv-x="1014" 
d="M724 120l8 746l101 104l99 -103l-8 -746l-100 -103zM723 117l5 635l101 104l99 -103l-5 -635l-100 -103zM711 907h-398l-104 101l103 99h398l103 -100zM85 1140v281l101 104l99 -103v-281l-100 -103zM82 128l8 746l101 104l99 -103l-8 -746l-100 -103z" />
    <glyph glyph-name="i" unicode="i" horiz-adv-x="408" 
d="M104 1243l103 100l100 -102l-2 -109l-101 -104l-99 103zM297 623l3 -3l-2 -507l-100 -103l-100 102l1 127l-4 4l3 634l100 103l100 -102z" />
    <glyph glyph-name="j" unicode="j" horiz-adv-x="1034" 
d="M815 -346l-103 -100h-398l-103 99l104 101h398zM734 1267l103 100l100 -102l-2 -109l-101 -104l-99 103zM732 -31v27l100 103l100 -102v-116h-2v-74l-101 -104l-99 103v163h2zM833 999l100 -103l-2 -674l-99 -103l-101 104l2 674z" />
    <glyph glyph-name="k" unicode="k" horiz-adv-x="1014" 
d="M95 115l2 507l101 104l99 -103l-2 -507l-100 -103zM728 116l2 507l101 104l99 -103l-2 -507l-100 -103zM713 645h-398l-104 101l103 99h398l103 -100zM96 873l2 528l101 104l99 -103l-2 -528l-100 -103zM764 1162l-296 -280l-145 2l7 143l296 280l143 -2z" />
    <glyph glyph-name="l" unicode="l" horiz-adv-x="419" 
d="M95 115l2 507l101 104l99 -103l-2 -507l-100 -103zM96 873l2 528l101 104l99 -103l-2 -528l-100 -103z" />
    <glyph glyph-name="m" unicode="m" horiz-adv-x="1297" 
d="M198 944l100 -103v-729l-99 -103l-101 104v729zM628 950l100 -103l-6 -636l-99 -103l-101 104l6 636zM1094 954l100 -103v-729l-99 -103l-101 104v729zM335 901h-27l-103 100l102 100h116v-2h74l104 -101l-103 -99h-163v2zM335 901h-27l-103 100l102 100h116v-2h74
l104 -101l-103 -99h-163v2zM798 904h-27l-103 100l102 100h116v-2h74l104 -101l-103 -99h-163v2z" />
    <glyph glyph-name="n" unicode="n" horiz-adv-x="1037" 
d="M839 977l100 -103l3 -767l-99 -103l-101 104l-3 767zM821 996l-103 -100h-398l-103 99l104 101h398zM198 966l100 -103l3 -759l-99 -103l-101 104l-3 759z" />
    <glyph glyph-name="o" unicode="o" horiz-adv-x="1014" 
d="M729 240v672l101 104l99 -103v-672l-100 -103zM708 953h-398l-104 101l103 99h398l103 -100zM708 16h-398l-104 101l103 99h398l103 -100zM87 248v672l101 104l99 -103v-672l-100 -103z" />
    <glyph glyph-name="p" unicode="p" horiz-adv-x="1053" 
d="M298 878l-3 -634l-101 -104l-99 103l3 634l100 103zM315 208h398l104 -101l-103 -99h-398l-103 100zM318 1099h398l104 -101l-103 -99h-398l-103 100zM290 -25v-281l-101 -104l-99 103v281l100 103zM939 867l-3 -626l-101 -104l-99 103l3 626l100 103z" />
    <glyph glyph-name="q" unicode="q" horiz-adv-x="1037" 
d="M839 977l100 -103l3 -634l-99 -103l-101 104l-3 634zM824 105l-103 -100h-398l-103 99l104 101h398zM821 996l-103 -100h-398l-103 99l104 101h398zM847 74l100 -103v-281l-99 -103l-101 104v281zM198 966l100 -103l3 -626l-99 -103l-101 104l-3 626zM1136 -540h-163
l-103 99l104 101h74v2h116l102 -100l-103 -100h-27v-2z" />
    <glyph glyph-name="r" unicode="r" horiz-adv-x="864" 
d="M301 867v-734l-101 -104l-99 103v734l100 103zM311 1096h398l104 -101l-103 -99h-398l-103 100z" />
    <glyph glyph-name="s" unicode="s" horiz-adv-x="1050" 
d="M322 209h398l104 -101l-103 -99h-398l-103 100zM308 663h398l104 -101l-103 -99h-398l-103 100zM311 1107h398l104 -101l-103 -99h-398l-103 100zM294 723v-27l-100 -103l-100 102v116h2v74l101 104l99 -103v-163h-2zM938 276v-27l-100 -103l-100 102v116h2v74l101 104
l99 -103v-163h-2z" />
    <glyph glyph-name="t" unicode="t" horiz-adv-x="1089" 
d="M443 1140v281l101 104l99 -103v-281l-100 -103zM440 128l8 746l101 104l99 -103l-8 -746l-100 -103zM129 1104h281l104 -101l-103 -99h-281l-103 100zM443 1140v281l101 104l99 -103v-281l-100 -103zM443 1140v281l101 104l99 -103v-281l-100 -103zM678 1106h281
l104 -101l-103 -99h-281l-103 100z" />
    <glyph glyph-name="u" unicode="u" horiz-adv-x="1014" 
d="M729 240v741l101 104l99 -103v-741l-100 -103zM728 237l-3 630l101 104l99 -103l3 -630l-100 -103zM708 16h-398l-104 101l103 99h398l103 -100zM87 248v741l101 104l99 -103v-741l-100 -103z" />
    <glyph glyph-name="v" unicode="v" horiz-adv-x="928" 
d="M330 150l365 491l145 8l3 -143l-366 -491l-143 -7zM301 580l-1 -463l-101 -104l-99 103l1 463l100 103zM639 975v27l100 103l100 -102v-116h-2v-74l-101 -104l-99 103v163h2zM107 978v27l100 103l100 -102v-116h-2v-74l-101 -104l-99 103v163h2z" />
    <glyph glyph-name="w" unicode="w" horiz-adv-x="1211" 
d="M707 15l-96 104l2 143l144 -6l236 -242zM212 16l237 243l143 6l3 -143l-99 -107zM1093 164l-100 -103l-100 102l1 127l-4 4l3 704l100 103l100 -102v-835zM305 150l-100 -103l-100 102l1 127l-4 4l3 704l100 103l100 -102v-835z" />
    <glyph glyph-name="x" unicode="x" horiz-adv-x="923" 
d="M268 632l-178 339l47 137l133 -50l178 -339l-46 -136zM661 51l-178 339l47 137l133 -50l178 -339l-46 -136zM494 713l179 338l140 39l34 -138l-179 -338l-139 -39zM90 148l179 338l140 39l34 -138l-179 -338l-139 -39z" />
    <glyph glyph-name="y" unicode="y" horiz-adv-x="1034" 
d="M833 1095l100 -103l5 -753l-99 -103l-101 104l-5 753zM826 107l-103 -100h-398l-103 99l104 101h398zM849 76l100 -103v-281l-99 -103l-101 104v281zM192 1084l100 -103l11 -742l-99 -103l-101 104l-11 742zM837 -449l-103 -100h-398l-103 99l104 101h398z" />
    <glyph glyph-name="z" unicode="z" horiz-adv-x="953" 
d="M723 742l-372 -482l-145 -13l-8 142l373 483l143 13zM709 909l-538 -2l-102 103l105 97l537 2l101 -102zM784 10l-538 -2l-102 103l105 97l537 2l101 -102z" />
    <glyph glyph-name="braceleft" unicode="{" horiz-adv-x="930" 
d="M526 645v-398l-101 -104l-99 103v398l100 103zM521 1293v-398l-101 -104l-99 103v398l100 103zM573 1321h-27l-103 100l102 100h116v-2h74l104 -101l-103 -99h-163v2zM583 20h-27l-103 100l102 100h116v-2h74l104 -101l-103 -99h-163v2zM188 665l-100 103l102 100l109 -2
l104 -101l-103 -99z" />
    <glyph glyph-name="bar" unicode="|" horiz-adv-x="419" 
d="M95 115l2 507l101 104l99 -103l-2 -507l-100 -103zM96 873l2 528l101 104l99 -103l-2 -528l-100 -103z" />
    <glyph glyph-name="braceright" unicode="}" horiz-adv-x="903" 
d="M511 747l100 -103v-398l-99 -103l-101 104v398zM516 1395l100 -103v-398l-99 -103l-101 104v398zM364 1319h-163l-103 99l104 101h74v2h116l102 -100l-103 -100h-27v-2zM354 18h-163l-103 99l104 101h74v2h116l102 -100l-103 -100h-27v-2zM637 666l-103 99l104 101l109 2
l102 -100l-100 -103z" />
    <glyph glyph-name="asciitilde" unicode="~" horiz-adv-x="1014" 
 />
    <glyph glyph-name="exclamdown" unicode="&#xa1;" horiz-adv-x="397" 
d="M106 626v398l101 104l99 -103v-398l-100 -103zM111 -22v398l101 104l99 -103v-398l-100 -103zM306 1269l-103 -92l-100 102l2 112l101 104l99 -103z" />
    <glyph glyph-name="cent" unicode="&#xa2;" horiz-adv-x="910" 
d="M205 1236l103 100h398l103 -99l-104 -101h-398zM231 752l103 100h398l103 -99l-104 -101h-398zM398 1599l103 100l100 -102l-2 -109l-101 -104l-99 103zM397 470l103 100l100 -102l-2 -109l-101 -104l-99 103zM300 919v-27l-100 -103l-100 102v116h2v74l101 104l99 -103
v-163h-2zM300 919v-27l-100 -103l-100 102v116h2v74l101 104l99 -103v-163h-2z" />
    <glyph glyph-name="sterling" unicode="&#xa3;" horiz-adv-x="1097" 
d="M300 629v-402l-101 -104l-99 103v402l100 103zM295 1277v-398l-101 -104l-99 103v398l100 103zM312 857h244l104 -101l-103 -99h-244l-103 100zM315 1498h398l104 -101l-103 -99h-398l-103 100zM326 201l587 3l104 -101l-103 -99l-587 -3l-103 100z" />
    <glyph glyph-name="currency" unicode="&#xa4;" horiz-adv-x="1014" 
 />
    <glyph glyph-name="yen" unicode="&#xa5;" horiz-adv-x="1262" 
 />
    <glyph glyph-name="brokenbar" unicode="&#xa6;" horiz-adv-x="393" 
d="M300 629l5 -490l-101 -104l-99 103l-5 490l100 103zM295 1385v-506l-101 -104l-99 103v506l100 103z" />
    <glyph glyph-name="section" unicode="&#xa7;" horiz-adv-x="1050" 
d="M322 209h398l104 -101l-103 -99h-398l-103 100zM316 657h398l104 -101l-103 -99h-398l-103 100zM327 1085h398l104 -101l-103 -99h-398l-103 100zM299 704v-27l-100 -103l-100 102v116h2v74l101 104l99 -103v-163h-2zM938 276v-27l-100 -103l-100 102v116h2v74l101 104
l99 -103v-163h-2zM319 1528h398l104 -101l-103 -99h-398l-103 100zM303 1145v-27l-100 -103l-100 102v116h2v74l101 104l99 -103v-163h-2zM938 707v-27l-100 -103l-100 102v116h2v74l101 104l99 -103v-163h-2z" />
    <glyph glyph-name="dieresis" unicode="&#xa8;" horiz-adv-x="1024" 
d="M4 1524l103 100l100 -102l-2 -109l-101 -104l-99 103zM262 1524l103 100l100 -102l-2 -109l-101 -104l-99 103z" />
    <glyph glyph-name="copyright" unicode="&#xa9;" horiz-adv-x="1674" 
 />
    <glyph glyph-name="ordfeminine" unicode="&#xaa;" horiz-adv-x="648" 
 />
    <glyph glyph-name="guillemotleft" unicode="&#xab;" horiz-adv-x="1021" 
d="M106 815l281 282l145 2l-3 -142l-280 -283l-144 -2zM242 582l286 -277l4 -145l-143 1l-286 277l-4 143zM495 828l281 282l145 2l-3 -142l-280 -283l-144 -2zM631 595l286 -277l4 -145l-143 1l-286 277l-4 143z" />
    <glyph glyph-name="logicalnot" unicode="&#xac;" horiz-adv-x="1014" 
 />
    <glyph glyph-name="registered" unicode="&#xae;" horiz-adv-x="1674" 
 />
    <glyph glyph-name="macron" unicode="&#xaf;" horiz-adv-x="670" 
 />
    <glyph glyph-name="degree" unicode="&#xb0;" horiz-adv-x="674" 
 />
    <glyph glyph-name="plusminus" unicode="&#xb1;" horiz-adv-x="1014" 
 />
    <glyph glyph-name="uni00B2" unicode="&#xb2;" horiz-adv-x="1014" 
 />
    <glyph glyph-name="uni00B3" unicode="&#xb3;" horiz-adv-x="1014" 
 />
    <glyph glyph-name="acute" unicode="&#xb4;" horiz-adv-x="392" 
d="M276 1325l-121 -109l-143 5l10 145l55 49l-1 2l86 77l143 -6l-10 -143l-20 -18z" />
    <glyph glyph-name="mu" unicode="&#xb5;" horiz-adv-x="1180" 
 />
    <glyph glyph-name="paragraph" unicode="&#xb6;" horiz-adv-x="1024" 
 />
    <glyph glyph-name="periodcentered" unicode="&#xb7;" horiz-adv-x="402" 
d="M99 915l103 100l100 -102l-2 -109l-101 -104l-99 103z" />
    <glyph glyph-name="periodcentered" unicode="&#x2219;" horiz-adv-x="402" 
d="M99 915l103 100l100 -102l-2 -109l-101 -104l-99 103z" />
    <glyph glyph-name="cedilla" unicode="&#xb8;" horiz-adv-x="1024" 
 />
    <glyph glyph-name="uni00B9" unicode="&#xb9;" horiz-adv-x="1014" 
 />
    <glyph glyph-name="ordmasculine" unicode="&#xba;" horiz-adv-x="718" 
 />
    <glyph glyph-name="guillemotright" unicode="&#xbb;" horiz-adv-x="1021" 
d="M106 815l281 282l145 2l-3 -142l-280 -283l-144 -2zM242 582l286 -277l4 -145l-143 1l-286 277l-4 143zM495 828l281 282l145 2l-3 -142l-280 -283l-144 -2zM631 595l286 -277l4 -145l-143 1l-286 277l-4 143z" />
    <glyph glyph-name="onequarter" unicode="&#xbc;" horiz-adv-x="1708" 
 />
    <glyph glyph-name="onehalf" unicode="&#xbd;" horiz-adv-x="1964" 
 />
    <glyph glyph-name="threequarters" unicode="&#xbe;" horiz-adv-x="1708" 
 />
    <glyph glyph-name="questiondown" unicode="&#xbf;" horiz-adv-x="944" 
d="M103 132l3 341l101 104l99 -103l-3 -341l-100 -103zM644 496h-320l-104 101l103 99h320l103 -100zM716 -88h-398l-104 101l103 99h398l103 -100zM854 1282l-103 -100l-100 102l2 109l101 104l99 -103zM656 738l-3 309l101 104l99 -103l3 -309l-100 -103z" />
    <glyph glyph-name="Agrave" unicode="&#xc0;" horiz-adv-x="1013" 
d="M295 629v-512l-101 -104l-99 103v512l100 103zM923 1278v-398l-101 -104l-99 103v398l100 103zM290 1277v-398l-101 -104l-99 103v398l100 103zM307 857h398l104 -101l-103 -99h-398l-103 100zM310 1498h398l104 -101l-103 -99h-398l-103 100zM924 629v-512l-101 -104
l-99 103v512l100 103zM329 1650l-20 18l-10 143l143 6l86 -77l-1 -2l55 -49l10 -145l-143 -5l-121 109z" />
    <glyph glyph-name="Aacute" unicode="&#xc1;" horiz-adv-x="1013" 
d="M295 629v-512l-101 -104l-99 103v512l100 103zM923 1278v-398l-101 -104l-99 103v398l100 103zM290 1277v-398l-101 -104l-99 103v398l100 103zM307 857h398l104 -101l-103 -99h-398l-103 100zM310 1498h398l104 -101l-103 -99h-398l-103 100zM924 629v-512l-101 -104
l-99 103v512l100 103zM797 1643l-121 -109l-143 5l10 145l55 49l-1 2l86 77l143 -6l-10 -143l-20 -18z" />
    <glyph glyph-name="Acircumflex" unicode="&#xc2;" horiz-adv-x="1013" 
d="M295 629v-512l-101 -104l-99 103v512l100 103zM923 1278v-398l-101 -104l-99 103v398l100 103zM290 1277v-398l-101 -104l-99 103v398l100 103zM307 857h398l104 -101l-103 -99h-398l-103 100zM310 1498h398l104 -101l-103 -99h-398l-103 100zM924 629v-512l-101 -104
l-99 103v512l100 103zM323 1783h143l-5 -145l-77 -77l-143 2l1 144zM722 1713l1 -144l-143 -2l-77 77l-5 145h143z" />
    <glyph glyph-name="Atilde" unicode="&#xc3;" horiz-adv-x="1013" 
d="M295 629v-512l-101 -104l-99 103v512l100 103zM923 1278v-398l-101 -104l-99 103v398l100 103zM290 1277v-398l-101 -104l-99 103v398l100 103zM307 857h398l104 -101l-103 -99h-398l-103 100zM310 1498h398l104 -101l-103 -99h-398l-103 100zM924 629v-512l-101 -104
l-99 103v512l100 103zM318 1762h398l104 -101l-103 -99h-398l-103 100z" />
    <glyph glyph-name="Adieresis" unicode="&#xc4;" horiz-adv-x="1013" 
d="M295 629v-512l-101 -104l-99 103v512l100 103zM923 1278v-398l-101 -104l-99 103v398l100 103zM290 1277v-398l-101 -104l-99 103v398l100 103zM307 857h398l104 -101l-103 -99h-398l-103 100zM310 1498h398l104 -101l-103 -99h-398l-103 100zM924 629v-512l-101 -104
l-99 103v512l100 103zM731 1584.5q-33 -31.5 -79 -31.5q-47 0 -80 31.5t-33 76.5q0 44 33 75.5t80 31.5q46 0 79 -31.5t33 -75.5q0 -45 -33 -76.5zM432 1588.5q-33 -31.5 -79 -31.5q-47 0 -80 31.5t-33 76.5q0 44 33 75.5t80 31.5q46 0 79 -31.5t33 -75.5q0 -45 -33 -76.5z
" />
    <glyph glyph-name="Aring" unicode="&#xc5;" horiz-adv-x="1013" 
d="M295 629v-512l-101 -104l-99 103v512l100 103zM923 1278v-398l-101 -104l-99 103v398l100 103zM290 1277v-398l-101 -104l-99 103v398l100 103zM307 857h398l104 -101l-103 -99h-398l-103 100zM310 1498h398l104 -101l-103 -99h-398l-103 100zM924 629v-512l-101 -104
l-99 103v512l100 103zM482 1707h-14l-54 51l53 52h60v-1h38l54 -52l-53 -52h-84v2zM456 1604v-14l-51 -53l-52 53v60h1v38l52 54l51 -54v-84h-1zM678 1607v-14l-52 -53l-51 52v60h1v39l52 53l51 -53v-84h-1zM552 1576h14l53 -51l-53 -52h-60v1h-38l-54 52l54 51h84v-1z" />
    <glyph glyph-name="AE" unicode="&#xc6;" horiz-adv-x="1532" 
d="M945 209h398l104 -101l-103 -99h-398l-103 100zM929 629v-398l-101 -104l-99 103v398l100 103zM924 1277v-398l-101 -104l-99 103v398l100 103zM941 857h398l104 -101l-103 -99h-398l-103 100zM944 1498h398l104 -101l-103 -99h-398l-103 100zM300 624v-512l-101 -104
l-99 103v512l100 103zM928 1273v-398l-101 -104l-99 103v398l100 103zM295 1272v-398l-101 -104l-99 103v398l100 103zM312 852h398l104 -101l-103 -99h-398l-103 100zM315 1493h398l104 -101l-103 -99h-398l-103 100z" />
    <glyph glyph-name="Ccedilla" unicode="&#xc7;" horiz-adv-x="921" 
d="M316 209h398l104 -101l-103 -99h-398l-103 100zM300 629v-398l-101 -104l-99 103v398l100 103zM295 1277v-398l-101 -104l-99 103v398l100 103zM315 1498h398l104 -101l-103 -99h-398l-103 100zM441 -13l19 19l144 3l-1 -143l-82 -82l-2 1l-52 -52l-145 -3l3 143l115 115
z" />
    <glyph glyph-name="Egrave" unicode="&#xc8;" horiz-adv-x="923" 
d="M316 209h398l104 -101l-103 -99h-398l-103 100zM300 629v-398l-101 -104l-99 103v398l100 103zM295 1277v-398l-101 -104l-99 103v398l100 103zM312 857h398l104 -101l-103 -99h-398l-103 100zM315 1498h398l104 -101l-103 -99h-398l-103 100zM329 1650l-20 18l-10 143
l143 6l86 -77l-1 -2l55 -49l10 -145l-143 -5l-121 109z" />
    <glyph glyph-name="Eacute" unicode="&#xc9;" horiz-adv-x="923" 
d="M316 209h398l104 -101l-103 -99h-398l-103 100zM300 629v-398l-101 -104l-99 103v398l100 103zM295 1277v-398l-101 -104l-99 103v398l100 103zM312 857h398l104 -101l-103 -99h-398l-103 100zM315 1498h398l104 -101l-103 -99h-398l-103 100zM728 1654l-121 -109l-143 5
l10 145l55 49l-1 2l86 77l143 -6l-10 -143l-20 -18z" />
    <glyph glyph-name="Ecircumflex" unicode="&#xca;" horiz-adv-x="923" 
d="M316 209h398l104 -101l-103 -99h-398l-103 100zM300 629v-398l-101 -104l-99 103v398l100 103zM295 1277v-398l-101 -104l-99 103v398l100 103zM312 857h398l104 -101l-103 -99h-398l-103 100zM315 1498h398l104 -101l-103 -99h-398l-103 100zM323 1783h143l-5 -145
l-77 -77l-143 2l1 144zM722 1713l1 -144l-143 -2l-77 77l-5 145h143z" />
    <glyph glyph-name="Edieresis" unicode="&#xcb;" horiz-adv-x="923" 
d="M316 209h398l104 -101l-103 -99h-398l-103 100zM300 629v-398l-101 -104l-99 103v398l100 103zM295 1277v-398l-101 -104l-99 103v398l100 103zM312 857h398l104 -101l-103 -99h-398l-103 100zM315 1498h398l104 -101l-103 -99h-398l-103 100zM674.5 1611.5
q-27.5 -26.5 -66.5 -26.5t-66.5 26.5t-27.5 63.5t27.5 63t66.5 26t66.5 -26t27.5 -63t-27.5 -63.5zM426.5 1615q-27.5 -26 -66.5 -26t-66.5 26t-27.5 63t27.5 63t66.5 26t66.5 -26t27.5 -63t-27.5 -63z" />
    <glyph glyph-name="Igrave" unicode="&#xcc;" horiz-adv-x="393" 
d="M300 629l5 -490l-101 -104l-99 103l-5 490l100 103zM295 1385v-506l-101 -104l-99 103v506l100 103zM-6 1650l-20 18l-10 143l143 6l86 -77l-1 -2l55 -49l10 -145l-143 -5l-121 109z" />
    <glyph glyph-name="Iacute" unicode="&#xcd;" horiz-adv-x="393" 
d="M300 629l5 -490l-101 -104l-99 103l-5 490l100 103zM295 1385v-506l-101 -104l-99 103v506l100 103zM389 1650l-121 -109l-143 5l10 145l55 49l-1 2l86 77l143 -6l-10 -143l-20 -18z" />
    <glyph glyph-name="Icircumflex" unicode="&#xce;" horiz-adv-x="393" 
d="M300 629l5 -490l-101 -104l-99 103l-5 490l100 103zM295 1385v-506l-101 -104l-99 103v506l100 103zM63 1747h143l-6 -145l-77 -77l-143 2l1 144zM462 1677l1 -144l-143 -2l-78 77l-5 145h143z" />
    <glyph glyph-name="Idieresis" unicode="&#xcf;" horiz-adv-x="393" 
d="M300 629l5 -490l-101 -104l-99 103l-5 490l100 103zM295 1385v-506l-101 -104l-99 103v506l100 103zM391.5 1579.5q-27.5 -26.5 -66.5 -26.5t-66.5 26.5t-27.5 63.5t27.5 63t66.5 26t66.5 -26t27.5 -63t-27.5 -63.5zM142.5 1583q-27.5 -26 -66.5 -26t-66.5 26t-27.5 63
t27.5 63t66.5 26t66.5 -26t27.5 -63t-27.5 -63z" />
    <glyph glyph-name="Eth" unicode="&#xd0;" horiz-adv-x="1518" 
 />
    <glyph glyph-name="Ntilde" unicode="&#xd1;" horiz-adv-x="1199" 
d="M300 629v-511l-101 -104l-99 103v511l100 103zM1093 1393v-512l-101 -104l-99 103v512l100 103zM295 1391v-512l-101 -104l-99 103v512l100 103zM1094 632v-511l-101 -104l-99 103v511l100 103zM709 903l-382 365l1 145l143 -6l382 -365l-1 -143zM843 1498h-421l-104 101
l103 99h421l103 -100z" />
    <glyph glyph-name="Ograve" unicode="&#xd2;" horiz-adv-x="1014" 
d="M316 209h398l104 -101l-103 -99h-398l-103 100zM300 629v-398l-101 -104l-99 103v398l100 103zM928 1278v-398l-101 -104l-99 103v398l100 103zM295 1277v-398l-101 -104l-99 103v398l100 103zM315 1498h398l104 -101l-103 -99h-398l-103 100zM929 629v-398l-101 -104
l-99 103v398l100 103zM329 1650l-20 18l-10 143l143 6l86 -77l-1 -2l55 -49l10 -145l-143 -5l-121 109z" />
    <glyph glyph-name="Oacute" unicode="&#xd3;" horiz-adv-x="1014" 
d="M316 209h398l104 -101l-103 -99h-398l-103 100zM300 629v-398l-101 -104l-99 103v398l100 103zM928 1278v-398l-101 -104l-99 103v398l100 103zM295 1277v-398l-101 -104l-99 103v398l100 103zM315 1498h398l104 -101l-103 -99h-398l-103 100zM929 629v-398l-101 -104
l-99 103v398l100 103zM699 1650l-121 -109l-143 5l10 145l55 49l-1 2l86 77l143 -6l-10 -143l-20 -18z" />
    <glyph glyph-name="Ocircumflex" unicode="&#xd4;" horiz-adv-x="1014" 
d="M316 209h398l104 -101l-103 -99h-398l-103 100zM300 629v-398l-101 -104l-99 103v398l100 103zM928 1278v-398l-101 -104l-99 103v398l100 103zM295 1277v-398l-101 -104l-99 103v398l100 103zM315 1498h398l104 -101l-103 -99h-398l-103 100zM929 629v-398l-101 -104
l-99 103v398l100 103zM323 1783h143l-5 -145l-77 -77l-143 2l1 144zM722 1713l1 -144l-143 -2l-77 77l-5 145h143z" />
    <glyph glyph-name="Otilde" unicode="&#xd5;" horiz-adv-x="1014" 
d="M316 209h398l104 -101l-103 -99h-398l-103 100zM300 629v-398l-101 -104l-99 103v398l100 103zM928 1278v-398l-101 -104l-99 103v398l100 103zM295 1277v-398l-101 -104l-99 103v398l100 103zM307 1741h398l104 -101l-103 -99h-398l-103 100zM929 629v-398l-101 -104
l-99 103v398l100 103zM310 1498h398l104 -101l-103 -99h-398l-103 100z" />
    <glyph glyph-name="Odieresis" unicode="&#xd6;" horiz-adv-x="1014" 
d="M316 209h398l104 -101l-103 -99h-398l-103 100zM300 629v-398l-101 -104l-99 103v398l100 103zM928 1278v-398l-101 -104l-99 103v398l100 103zM295 1277v-398l-101 -104l-99 103v398l100 103zM315 1498h398l104 -101l-103 -99h-398l-103 100zM929 629v-398l-101 -104
l-99 103v398l100 103zM674.5 1611.5q-27.5 -26.5 -66.5 -26.5t-66.5 26.5t-27.5 63.5t27.5 63t66.5 26t66.5 -26t27.5 -63t-27.5 -63.5zM426.5 1615q-27.5 -26 -66.5 -26t-66.5 26t-27.5 63t27.5 63t66.5 26t66.5 -26t27.5 -63t-27.5 -63z" />
    <glyph glyph-name="multiply" unicode="&#xd7;" horiz-adv-x="770" 
d="M422 462l-19 19l-4 144l143 -1l83 -81l-1 -2l52 -51l4 -145l-143 1l-116 115zM98 785l-20 19l-3 143h143l83 -81l-2 -2l53 -52l3 -145l-143 2l-116 114zM248 367l-19 -20l-143 -3v143l81 83l2 -2l52 53l145 3l-2 -142l-114 -117zM563 684l-19 -19l-144 -3l1 143l82 82
l2 -1l52 52l145 3l-3 -143l-115 -115z" />
    <glyph glyph-name="Oslash" unicode="&#xd8;" horiz-adv-x="1014" 
d="M316 209h398l104 -101l-103 -99h-398l-103 100zM300 629v-398l-101 -104l-99 103v398l100 103zM928 1278v-398l-101 -104l-99 103v398l100 103zM295 1277v-398l-101 -104l-99 103v398l100 103zM315 1498h398l104 -101l-103 -99h-398l-103 100zM929 629v-398l-101 -104
l-99 103v398l100 103z" />
    <glyph glyph-name="Ugrave" unicode="&#xd9;" horiz-adv-x="1014" 
d="M200 780l-100 103v512l99 103l101 -104v-512zM828 131l-100 103v398l99 103l101 -104v-398zM195 132l-100 103v398l99 103l101 -104v-398zM213 113l103 100h398l103 -99l-104 -101h-398zM829 780l-100 103v512l99 103l101 -104v-512zM206 1645l-20 18l-10 143l143 6
l86 -77l-1 -2l55 -49l10 -145l-143 -5l-121 109z" />
    <glyph glyph-name="Uacute" unicode="&#xda;" horiz-adv-x="1014" 
d="M200 780l-100 103v512l99 103l101 -104v-512zM828 131l-100 103v398l99 103l101 -104v-398zM195 132l-100 103v398l99 103l101 -104v-398zM213 113l103 100h398l103 -99l-104 -101h-398zM829 780l-100 103v512l99 103l101 -104v-512zM584 1713l121 109l143 -5l-10 -144
l-55 -50l1 -1l-86 -78l-143 7l10 143l20 18z" />
    <glyph glyph-name="Ucircumflex" unicode="&#xdb;" horiz-adv-x="1014" 
d="M200 780l-100 103v512l99 103l101 -104v-512zM828 131l-100 103v398l99 103l101 -104v-398zM195 132l-100 103v398l99 103l101 -104v-398zM213 113l103 100h398l103 -99l-104 -101h-398zM829 780l-100 103v512l99 103l101 -104v-512zM379 1762h143l-5 -145l-77 -77
l-143 2l1 144zM778 1692l1 -144l-143 -2l-77 77l-5 145h143z" />
    <glyph glyph-name="Udieresis" unicode="&#xdc;" horiz-adv-x="1014" 
d="M200 780l-100 103v512l99 103l101 -104v-512zM828 131l-100 103v398l99 103l101 -104v-398zM195 132l-100 103v398l99 103l101 -104v-398zM213 113l103 100h398l103 -99l-104 -101h-398zM829 780l-100 103v512l99 103l101 -104v-512zM674.5 1611.5
q-27.5 -26.5 -66.5 -26.5t-66.5 26.5t-27.5 63.5t27.5 63t66.5 26t66.5 -26t27.5 -63t-27.5 -63.5zM426.5 1615q-27.5 -26 -66.5 -26t-66.5 26t-27.5 63t27.5 63t66.5 26t66.5 -26t27.5 -63t-27.5 -63z" />
    <glyph glyph-name="Yacute" unicode="&#xdd;" horiz-adv-x="1014" 
d="M926 1394l2 -514l-101 -104l-99 103l-2 514l100 103zM293 1393l2 -514l-101 -104l-99 103l-2 514l100 103zM312 857h398l104 -101l-103 -99h-398l-103 100zM632 526v-398l-101 -104l-99 103v398l100 103zM805 1648l-121 -109l-143 5l10 145l55 49l-1 2l86 77l143 -6
l-10 -143l-20 -18z" />
    <glyph glyph-name="Thorn" unicode="&#xde;" horiz-adv-x="1120" 
 />
    <glyph glyph-name="germandbls" unicode="&#xdf;" horiz-adv-x="1014" 
d="M928 1278v-398l-101 -104l-99 103v398l100 103zM312 857h398l104 -101l-103 -99h-398l-103 100zM315 1498h398l104 -101l-103 -99h-398l-103 100zM929 629v-398l-101 -104l-99 103v398l100 103zM268 1278v-398l-101 -104l-99 103v398l100 103zM270 642l2 -748l-101 -104
l-99 103l-2 748l100 103zM431 203l264 3l104 -101l-103 -99l-264 -3l-103 100z" />
    <glyph glyph-name="agrave" unicode="&#xe0;" horiz-adv-x="1014" 
d="M696 907h-398l-104 101l103 99h398l103 -100zM710 453h-398l-104 101l103 99h398l103 -100zM707 9h-398l-104 101l103 99h398l103 -100zM724 393v27l100 103l100 -102v-116h-2v-74l-101 -104l-99 103v163h2zM95 396v27l100 103l100 -102v-116h-2v-74l-101 -104l-99 103
v163h2zM725 850v27l100 103l100 -102v-116h-2v-74l-101 -104l-99 103v163h2zM286 1303l-20 18l-10 143l143 6l86 -77l-1 -2l55 -49l10 -145l-143 -5l-121 109z" />
    <glyph glyph-name="aacute" unicode="&#xe1;" horiz-adv-x="1014" 
d="M696 907h-398l-104 101l103 99h398l103 -100zM710 453h-398l-104 101l103 99h398l103 -100zM707 9h-398l-104 101l103 99h398l103 -100zM724 393v27l100 103l100 -102v-116h-2v-74l-101 -104l-99 103v163h2zM95 396v27l100 103l100 -102v-116h-2v-74l-101 -104l-99 103
v163h2zM725 850v27l100 103l100 -102v-116h-2v-74l-101 -104l-99 103v163h2zM697 1302l-121 -109l-143 5l10 145l55 49l-1 2l86 77l143 -6l-10 -143l-20 -18z" />
    <glyph glyph-name="acircumflex" unicode="&#xe2;" horiz-adv-x="1014" 
d="M696 907h-398l-104 101l103 99h398l103 -100zM710 453h-398l-104 101l103 99h398l103 -100zM707 9h-398l-104 101l103 99h398l103 -100zM724 393v27l100 103l100 -102v-116h-2v-74l-101 -104l-99 103v163h2zM95 396v27l100 103l100 -102v-116h-2v-74l-101 -104l-99 103
v163h2zM725 850v27l100 103l100 -102v-116h-2v-74l-101 -104l-99 103v163h2zM342 1410h143l-5 -145l-77 -77l-143 2l1 144zM741 1340l1 -144l-143 -2l-77 77l-5 145h143z" />
    <glyph glyph-name="atilde" unicode="&#xe3;" horiz-adv-x="1014" 
d="M696 907h-398l-104 101l103 99h398l103 -100zM710 453h-398l-104 101l103 99h398l103 -100zM707 9h-398l-104 101l103 99h398l103 -100zM724 393v27l100 103l100 -102v-116h-2v-74l-101 -104l-99 103v163h2zM95 396v27l100 103l100 -102v-116h-2v-74l-101 -104l-99 103
v163h2zM725 850v27l100 103l100 -102v-116h-2v-74l-101 -104l-99 103v163h2zM300 1394h398l104 -101l-103 -99h-398l-103 100z" />
    <glyph glyph-name="adieresis" unicode="&#xe4;" horiz-adv-x="1014" 
d="M696 907h-398l-104 101l103 99h398l103 -100zM710 453h-398l-104 101l103 99h398l103 -100zM707 9h-398l-104 101l103 99h398l103 -100zM724 393v27l100 103l100 -102v-116h-2v-74l-101 -104l-99 103v163h2zM95 396v27l100 103l100 -102v-116h-2v-74l-101 -104l-99 103
v163h2zM725 850v27l100 103l100 -102v-116h-2v-74l-101 -104l-99 103v163h2zM685.5 1231.5q-27.5 -26.5 -66.5 -26.5t-66.5 26.5t-27.5 63.5t27.5 63t66.5 26t66.5 -26t27.5 -63t-27.5 -63.5zM437.5 1235q-27.5 -26 -66.5 -26t-66.5 26t-27.5 63t27.5 63t66.5 26t66.5 -26
t27.5 -63t-27.5 -63z" />
    <glyph glyph-name="aring" unicode="&#xe5;" horiz-adv-x="1014" 
d="M696 907h-398l-104 101l103 99h398l103 -100zM710 453h-398l-104 101l103 99h398l103 -100zM707 9h-398l-104 101l103 99h398l103 -100zM724 393v27l100 103l100 -102v-116h-2v-74l-101 -104l-99 103v163h2zM95 396v27l100 103l100 -102v-116h-2v-74l-101 -104l-99 103
v163h2zM725 850v27l100 103l100 -102v-116h-2v-74l-101 -104l-99 103v163h2zM466 1392h-14l-54 51l53 52h60v-1h38l54 -52l-53 -52h-84v2zM440 1289v-14l-51 -53l-52 53v60h1v38l52 54l51 -54v-84h-1zM662 1292v-14l-52 -53l-51 52v60h1v39l52 53l51 -53v-84h-1zM536 1261
h14l53 -51l-53 -52h-60v1h-38l-54 52l54 51h84v-1z" />
    <glyph glyph-name="ae" unicode="&#xe6;" horiz-adv-x="1692" 
d="M696 907h-398l-104 101l103 99h398l103 -100zM710 453h-398l-104 101l103 99h398l103 -100zM707 9h-398l-104 101l103 99h398l103 -100zM724 393v27l100 103l100 -102v-116h-2v-74l-101 -104l-99 103v163h2zM95 396v27l100 103l100 -102v-116h-2v-74l-101 -104l-99 103
v163h2zM725 850v27l100 103l100 -102v-116h-2v-74l-101 -104l-99 103v163h2zM1338 2h-398l-104 101l103 99h398l103 -100zM1391 866v27l100 103l100 -102v-116h-2v-74l-101 -104l-99 103v163h2zM1381 456h-398l-104 101l103 99h398l103 -100zM1356 907h-398l-104 101l103 99
h398l103 -100z" />
    <glyph glyph-name="ccedilla" unicode="&#xe7;" horiz-adv-x="910" 
d="M194 154l-100 103l-3 626l99 103l101 -104l3 -626zM210 1007l103 100h398l103 -99l-104 -101h-398zM213 116l103 100h398l103 -99l-104 -101h-398zM436 10l19 19l144 3l-1 -143l-82 -82l-2 1l-52 -52l-145 -3l3 143l115 115z" />
    <glyph glyph-name="egrave" unicode="&#xe8;" horiz-adv-x="1014" 
d="M322 209h398l104 -101l-103 -99h-398l-103 100zM308 663h398l104 -101l-103 -99h-398l-103 100zM311 1107h398l104 -101l-103 -99h-398l-103 100zM294 723v-27l-100 -103l-100 102v116h2v74l101 104l99 -103v-163h-2zM923 720v-27l-100 -103l-100 102v116h2v74l101 104
l99 -103v-163h-2zM293 266v-27l-100 -103l-100 102v116h2v74l101 104l99 -103v-163h-2zM289 1304l-20 18l-10 143l143 6l86 -77l-1 -2l55 -49l10 -145l-143 -5l-121 109z" />
    <glyph glyph-name="eacute" unicode="&#xe9;" horiz-adv-x="1014" 
d="M322 209h398l104 -101l-103 -99h-398l-103 100zM308 663h398l104 -101l-103 -99h-398l-103 100zM311 1107h398l104 -101l-103 -99h-398l-103 100zM294 723v-27l-100 -103l-100 102v116h2v74l101 104l99 -103v-163h-2zM923 720v-27l-100 -103l-100 102v116h2v74l101 104
l99 -103v-163h-2zM293 266v-27l-100 -103l-100 102v116h2v74l101 104l99 -103v-163h-2zM688 1309l-121 -109l-143 5l10 145l55 49l-1 2l86 77l143 -6l-10 -143l-20 -18z" />
    <glyph glyph-name="ecircumflex" unicode="&#xea;" horiz-adv-x="909" 
d="M323 1417h143l-5 -145l-77 -77l-143 2l1 144zM722 1347l1 -144l-143 -2l-77 77l-5 145h143zM322 209h398l104 -101l-103 -99h-398l-103 100zM308 663h398l104 -101l-103 -99h-398l-103 100zM311 1107h398l104 -101l-103 -99h-398l-103 100zM294 723v-27l-100 -103
l-100 102v116h2v74l101 104l99 -103v-163h-2zM923 720v-27l-100 -103l-100 102v116h2v74l101 104l99 -103v-163h-2zM293 266v-27l-100 -103l-100 102v116h2v74l101 104l99 -103v-163h-2z" />
    <glyph glyph-name="edieresis" unicode="&#xeb;" horiz-adv-x="1014" 
d="M322 209h398l104 -101l-103 -99h-398l-103 100zM308 663h398l104 -101l-103 -99h-398l-103 100zM311 1107h398l104 -101l-103 -99h-398l-103 100zM294 723v-27l-100 -103l-100 102v116h2v74l101 104l99 -103v-163h-2zM923 720v-27l-100 -103l-100 102v116h2v74l101 104
l99 -103v-163h-2zM293 266v-27l-100 -103l-100 102v116h2v74l101 104l99 -103v-163h-2zM686.5 1251.5q-27.5 -26.5 -66.5 -26.5t-66.5 26.5t-27.5 63.5t27.5 63t66.5 26t66.5 -26t27.5 -63t-27.5 -63.5zM438.5 1255q-27.5 -26 -66.5 -26t-66.5 26t-27.5 63t27.5 63t66.5 26
t66.5 -26t27.5 -63t-27.5 -63z" />
    <glyph glyph-name="igrave" unicode="&#xec;" horiz-adv-x="408" 
d="M296 623l4 -3l-2 -507l-100 -103l-100 102v127l-3 4l3 634l100 103l100 -102zM-9 1202l-20 18l-10 143l143 6l86 -77l-1 -2l55 -49l10 -145l-143 -5l-121 109z" />
    <glyph glyph-name="iacute" unicode="&#xed;" horiz-adv-x="408" 
d="M297 623l3 -3l-2 -507l-100 -103l-100 102l1 127l-4 4l3 634l100 103l100 -102zM397 1206l-121 -109l-143 5l10 145l55 49l-1 2l86 77l143 -6l-10 -143l-20 -18z" />
    <glyph glyph-name="icircumflex" unicode="&#xee;" horiz-adv-x="408" 
d="M297 623l3 -3l-2 -507l-100 -103l-100 102l1 127l-4 4l3 634l100 103l100 -102zM57 1325h143l-6 -145l-77 -77l-143 2l1 144zM456 1255l1 -144l-143 -2l-78 77l-5 145h143z" />
    <glyph glyph-name="idieresis" unicode="&#xef;" horiz-adv-x="408" 
d="M297 623l3 -3l-2 -507l-100 -103l-100 102l1 127l-4 4l3 634l100 103l100 -102zM373.5 1121.5q-27.5 -26.5 -66.5 -26.5t-66.5 26.5t-27.5 63.5t27.5 63t66.5 26t66.5 -26t27.5 -63t-27.5 -63.5zM124.5 1125q-27.5 -26 -66.5 -26t-66.5 26t-27.5 63t27.5 63t66.5 26
t66.5 -26t27.5 -63t-27.5 -63z" />
    <glyph glyph-name="eth" unicode="&#xf0;" horiz-adv-x="1139" 
 />
    <glyph glyph-name="ntilde" unicode="&#xf1;" horiz-adv-x="1037" 
d="M839 977l100 -103l3 -767l-99 -103l-101 104l-3 767zM821 996l-103 -100h-398l-103 99l104 101h398zM198 966l100 -103l3 -759l-99 -103l-101 104l-3 759zM326 1399h398l104 -101l-103 -99h-398l-103 100z" />
    <glyph glyph-name="ograve" unicode="&#xf2;" horiz-adv-x="1053" 
d="M298 878l-3 -634l-101 -104l-99 103l3 634l100 103zM315 208h398l104 -101l-103 -99h-398l-103 100zM318 1099h398l104 -101l-103 -99h-398l-103 100zM939 867l-3 -626l-101 -104l-99 103l3 626l100 103zM313 1306l-20 18l-10 143l143 6l86 -77l-1 -2l55 -49l10 -145
l-143 -5l-121 109z" />
    <glyph glyph-name="oacute" unicode="&#xf3;" horiz-adv-x="1053" 
d="M298 878l-3 -634l-101 -104l-99 103l3 634l100 103zM315 208h398l104 -101l-103 -99h-398l-103 100zM318 1099h398l104 -101l-103 -99h-398l-103 100zM939 867l-3 -626l-101 -104l-99 103l3 626l100 103zM707 1312l-121 -109l-143 5l10 145l55 49l-1 2l86 77l143 -6
l-10 -143l-20 -18z" />
    <glyph glyph-name="ocircumflex" unicode="&#xf4;" horiz-adv-x="1053" 
d="M298 878l-3 -634l-101 -104l-99 103l3 634l100 103zM315 208h398l104 -101l-103 -99h-398l-103 100zM318 1099h398l104 -101l-103 -99h-398l-103 100zM939 867l-3 -626l-101 -104l-99 103l3 626l100 103zM353 1407h143l-5 -145l-77 -77l-143 2l1 144zM752 1337l1 -144
l-143 -2l-77 77l-5 145h143z" />
    <glyph glyph-name="otilde" unicode="&#xf5;" horiz-adv-x="1053" 
d="M298 878l-3 -634l-101 -104l-99 103l3 634l100 103zM315 208h398l104 -101l-103 -99h-398l-103 100zM318 1099h398l104 -101l-103 -99h-398l-103 100zM939 867l-3 -626l-101 -104l-99 103l3 626l100 103zM316 1394h398l104 -101l-103 -99h-398l-103 100z" />
    <glyph glyph-name="odieresis" unicode="&#xf6;" horiz-adv-x="1053" 
d="M298 878l-3 -634l-101 -104l-99 103l3 634l100 103zM315 208h398l104 -101l-103 -99h-398l-103 100zM318 1099h398l104 -101l-103 -99h-398l-103 100zM939 867l-3 -626l-101 -104l-99 103l3 626l100 103zM682.5 1208.5q-27.5 -26.5 -66.5 -26.5t-66.5 26.5t-27.5 63.5
t27.5 63t66.5 26t66.5 -26t27.5 -63t-27.5 -63.5zM434.5 1212q-27.5 -26 -66.5 -26t-66.5 26t-27.5 63t27.5 63t66.5 26t66.5 -26t27.5 -63t-27.5 -63z" />
    <glyph glyph-name="divide" unicode="&#xf7;" horiz-adv-x="802" 
d="M209 857h398l104 -101l-103 -99h-398l-103 100zM295 470l103 100l100 -102l-2 -109l-101 -104l-99 103zM313 1144l103 100l100 -102l-2 -109l-101 -104l-99 103z" />
    <glyph glyph-name="oslash" unicode="&#xf8;" horiz-adv-x="1053" 
d="M298 878l-3 -634l-101 -104l-99 103l3 634l100 103zM315 208h398l104 -101l-103 -99h-398l-103 100zM318 1099h398l104 -101l-103 -99h-398l-103 100zM939 867l-3 -626l-101 -104l-99 103l3 626l100 103z" />
    <glyph glyph-name="ugrave" unicode="&#xf9;" horiz-adv-x="1014" 
d="M729 240v741l101 104l99 -103v-741l-100 -103zM728 237l-3 630l101 104l99 -103l3 -630l-100 -103zM708 16h-398l-104 101l103 99h398l103 -100zM87 248v741l101 104l99 -103v-741l-100 -103zM182 1261l-20 18l-10 143l143 6l86 -77l-1 -2l55 -49l10 -145l-143 -5
l-121 109z" />
    <glyph glyph-name="uacute" unicode="&#xfa;" horiz-adv-x="1014" 
d="M729 240v741l101 104l99 -103v-741l-100 -103zM728 237l-3 630l101 104l99 -103l3 -630l-100 -103zM708 16h-398l-104 101l103 99h398l103 -100zM87 248v741l101 104l99 -103v-741l-100 -103zM814 1307l-121 -109l-143 5l10 145l55 49l-1 2l86 77l143 -6l-10 -143
l-20 -18z" />
    <glyph glyph-name="ucircumflex" unicode="&#xfb;" horiz-adv-x="1014" 
d="M729 251v741l101 104l99 -103v-741l-100 -103zM708 16h-398l-104 101l103 99h398l103 -100zM87 248v741l101 104l99 -103v-741l-100 -103zM350 1410h143l-5 -145l-77 -77l-143 2l1 144zM749 1340l1 -144l-143 -2l-77 77l-5 145h143z" />
    <glyph glyph-name="udieresis" unicode="&#xfc;" horiz-adv-x="1020" 
d="M735 240v741l101 104l99 -103v-741l-100 -103zM734 237l-3 630l101 104l99 -103l3 -630l-100 -103zM714 16h-398l-104 101l103 99h398l103 -100zM93 248v741l101 104l99 -103v-741l-100 -103zM698.5 1202.5q-27.5 -26.5 -66.5 -26.5t-66.5 26.5t-27.5 63.5t27.5 63
t66.5 26t66.5 -26t27.5 -63t-27.5 -63.5zM450.5 1206q-27.5 -26 -66.5 -26t-66.5 26t-27.5 63t27.5 63t66.5 26t66.5 -26t27.5 -63t-27.5 -63z" />
    <glyph glyph-name="yacute" unicode="&#xfd;" horiz-adv-x="1034" 
d="M833 1095l100 -103l5 -753l-99 -103l-101 104l-5 753zM826 107l-103 -100h-398l-103 99l104 101h398zM849 76l100 -103v-281l-99 -103l-101 104v281zM192 1084l100 -103l11 -742l-99 -103l-101 104l-11 742zM837 -449l-103 -100h-398l-103 99l104 101h398zM755 1306
l-121 -109l-143 5l10 145l55 49l-1 2l86 77l143 -6l-10 -143l-20 -18z" />
    <glyph glyph-name="thorn" unicode="&#xfe;" horiz-adv-x="1010" 
 />
    <glyph glyph-name="ydieresis" unicode="&#xff;" horiz-adv-x="1034" 
d="M833 1095l100 -103l5 -753l-99 -103l-101 104l-5 753zM826 107l-103 -100h-398l-103 99l104 101h398zM849 76l100 -103v-281l-99 -103l-101 104v281zM192 1084l100 -103l11 -742l-99 -103l-101 104l-11 742zM837 -449l-103 -100h-398l-103 99l104 101h398zM279 1337
l103 100l100 -102l-2 -109l-101 -104l-99 103zM537 1337l103 100l100 -102l-2 -109l-101 -104l-99 103z" />
    <glyph glyph-name="Amacron" unicode="&#x100;" 
 />
    <glyph glyph-name="amacron" unicode="&#x101;" 
 />
    <glyph glyph-name="Abreve" unicode="&#x102;" 
 />
    <glyph glyph-name="abreve" unicode="&#x103;" 
 />
    <glyph glyph-name="Aogonek" unicode="&#x104;" 
 />
    <glyph glyph-name="aogonek" unicode="&#x105;" 
 />
    <glyph glyph-name="Cacute" unicode="&#x106;" 
 />
    <glyph glyph-name="cacute" unicode="&#x107;" 
 />
    <glyph glyph-name="Ccircumflex" unicode="&#x108;" 
 />
    <glyph glyph-name="ccircumflex" unicode="&#x109;" 
 />
    <glyph glyph-name="Cdotaccent" unicode="&#x10a;" 
 />
    <glyph glyph-name="cdotaccent" unicode="&#x10b;" 
 />
    <glyph glyph-name="Ccaron" unicode="&#x10c;" 
 />
    <glyph glyph-name="ccaron" unicode="&#x10d;" 
 />
    <glyph glyph-name="Dcaron" unicode="&#x10e;" 
 />
    <glyph glyph-name="dcaron" unicode="&#x10f;" 
 />
    <glyph glyph-name="Dcroat" unicode="&#x110;" 
 />
    <glyph glyph-name="dcroat" unicode="&#x111;" 
 />
    <glyph glyph-name="Emacron" unicode="&#x112;" 
 />
    <glyph glyph-name="emacron" unicode="&#x113;" 
 />
    <glyph glyph-name="Ebreve" unicode="&#x114;" 
 />
    <glyph glyph-name="ebreve" unicode="&#x115;" 
 />
    <glyph glyph-name="Edotaccent" unicode="&#x116;" 
 />
    <glyph glyph-name="edotaccent" unicode="&#x117;" 
 />
    <glyph glyph-name="Eogonek" unicode="&#x118;" 
 />
    <glyph glyph-name="eogonek" unicode="&#x119;" 
 />
    <glyph glyph-name="Ecaron" unicode="&#x11a;" 
 />
    <glyph glyph-name="ecaron" unicode="&#x11b;" 
 />
    <glyph glyph-name="Gcircumflex" unicode="&#x11c;" 
 />
    <glyph glyph-name="gcircumflex" unicode="&#x11d;" 
 />
    <glyph glyph-name="Gbreve" unicode="&#x11e;" 
 />
    <glyph glyph-name="gbreve" unicode="&#x11f;" 
 />
    <glyph glyph-name="Gdotaccent" unicode="&#x120;" 
 />
    <glyph glyph-name="gdotaccent" unicode="&#x121;" 
 />
    <glyph glyph-name="Gcommaaccent" unicode="&#x122;" 
 />
    <glyph glyph-name="gcommaaccent" unicode="&#x123;" 
 />
    <glyph glyph-name="Hcircumflex" unicode="&#x124;" 
 />
    <glyph glyph-name="hcircumflex" unicode="&#x125;" 
 />
    <glyph glyph-name="Hbar" unicode="&#x126;" 
 />
    <glyph glyph-name="hbar" unicode="&#x127;" 
 />
    <glyph glyph-name="Itilde" unicode="&#x128;" 
 />
    <glyph glyph-name="itilde" unicode="&#x129;" 
 />
    <glyph glyph-name="Imacron" unicode="&#x12a;" 
 />
    <glyph glyph-name="imacron" unicode="&#x12b;" 
 />
    <glyph glyph-name="Ibreve" unicode="&#x12c;" 
 />
    <glyph glyph-name="ibreve" unicode="&#x12d;" 
 />
    <glyph glyph-name="Iogonek" unicode="&#x12e;" 
 />
    <glyph glyph-name="iogonek" unicode="&#x12f;" 
 />
    <glyph glyph-name="Idotaccent" unicode="&#x130;" 
 />
    <glyph glyph-name="dotlessi" unicode="&#x131;" horiz-adv-x="514" 
 />
    <glyph glyph-name="IJ" unicode="&#x132;" 
 />
    <glyph glyph-name="ij" unicode="&#x133;" 
 />
    <glyph glyph-name="Jcircumflex" unicode="&#x134;" 
 />
    <glyph glyph-name="jcircumflex" unicode="&#x135;" 
 />
    <glyph glyph-name="Kcommaaccent" unicode="&#x136;" 
 />
    <glyph glyph-name="kcommaaccent" unicode="&#x137;" 
 />
    <glyph glyph-name="kgreenlandic" unicode="&#x138;" 
 />
    <glyph glyph-name="Lacute" unicode="&#x139;" 
 />
    <glyph glyph-name="lacute" unicode="&#x13a;" 
 />
    <glyph glyph-name="Lcommaaccent" unicode="&#x13b;" 
 />
    <glyph glyph-name="lcommaaccent" unicode="&#x13c;" 
 />
    <glyph glyph-name="Lcaron" unicode="&#x13d;" 
 />
    <glyph glyph-name="lcaron" unicode="&#x13e;" 
 />
    <glyph glyph-name="Ldot" unicode="&#x13f;" 
 />
    <glyph glyph-name="ldot" unicode="&#x140;" 
 />
    <glyph glyph-name="Lslash" unicode="&#x141;" 
 />
    <glyph glyph-name="lslash" unicode="&#x142;" 
 />
    <glyph glyph-name="Nacute" unicode="&#x143;" 
 />
    <glyph glyph-name="nacute" unicode="&#x144;" 
 />
    <glyph glyph-name="Ncommaaccent" unicode="&#x145;" 
 />
    <glyph glyph-name="ncommaaccent" unicode="&#x146;" 
 />
    <glyph glyph-name="Ncaron" unicode="&#x147;" 
 />
    <glyph glyph-name="ncaron" unicode="&#x148;" 
 />
    <glyph glyph-name="napostrophe" unicode="&#x149;" 
 />
    <glyph glyph-name="Eng" unicode="&#x14a;" 
 />
    <glyph glyph-name="eng" unicode="&#x14b;" 
 />
    <glyph glyph-name="Omacron" unicode="&#x14c;" 
 />
    <glyph glyph-name="omacron" unicode="&#x14d;" 
 />
    <glyph glyph-name="Obreve" unicode="&#x14e;" 
 />
    <glyph glyph-name="obreve" unicode="&#x14f;" 
 />
    <glyph glyph-name="Ohungarumlaut" unicode="&#x150;" 
 />
    <glyph glyph-name="ohungarumlaut" unicode="&#x151;" 
 />
    <glyph glyph-name="OE" unicode="&#x152;" 
 />
    <glyph glyph-name="oe" unicode="&#x153;" 
 />
    <glyph glyph-name="Racute" unicode="&#x154;" 
 />
    <glyph glyph-name="racute" unicode="&#x155;" 
 />
    <glyph glyph-name="Rcommaaccent" unicode="&#x156;" 
 />
    <glyph glyph-name="rcommaaccent" unicode="&#x157;" 
 />
    <glyph glyph-name="Rcaron" unicode="&#x158;" 
 />
    <glyph glyph-name="rcaron" unicode="&#x159;" 
 />
    <glyph glyph-name="Sacute" unicode="&#x15a;" 
 />
    <glyph glyph-name="sacute" unicode="&#x15b;" 
 />
    <glyph glyph-name="Scircumflex" unicode="&#x15c;" 
 />
    <glyph glyph-name="scircumflex" unicode="&#x15d;" 
 />
    <glyph glyph-name="Scedilla" unicode="&#x15e;" 
 />
    <glyph glyph-name="scedilla" unicode="&#x15f;" 
 />
    <glyph glyph-name="Scaron" unicode="&#x160;" 
 />
    <glyph glyph-name="scaron" unicode="&#x161;" 
 />
    <glyph glyph-name="Tcommaaccent" unicode="&#x162;" 
 />
    <glyph glyph-name="tcommaaccent" unicode="&#x163;" 
 />
    <glyph glyph-name="Tcaron" unicode="&#x164;" 
 />
    <glyph glyph-name="tcaron" unicode="&#x165;" 
 />
    <glyph glyph-name="Tbar" unicode="&#x166;" 
 />
    <glyph glyph-name="tbar" unicode="&#x167;" 
 />
    <glyph glyph-name="Utilde" unicode="&#x168;" 
 />
    <glyph glyph-name="utilde" unicode="&#x169;" 
 />
    <glyph glyph-name="Umacron" unicode="&#x16a;" 
 />
    <glyph glyph-name="umacron" unicode="&#x16b;" 
 />
    <glyph glyph-name="Ubreve" unicode="&#x16c;" 
 />
    <glyph glyph-name="ubreve" unicode="&#x16d;" 
 />
    <glyph glyph-name="Uring" unicode="&#x16e;" 
 />
    <glyph glyph-name="uring" unicode="&#x16f;" 
 />
    <glyph glyph-name="Uhungarumlaut" unicode="&#x170;" 
 />
    <glyph glyph-name="uhungarumlaut" unicode="&#x171;" 
 />
    <glyph glyph-name="Uogonek" unicode="&#x172;" 
 />
    <glyph glyph-name="uogonek" unicode="&#x173;" 
 />
    <glyph glyph-name="Wcircumflex" unicode="&#x174;" 
 />
    <glyph glyph-name="wcircumflex" unicode="&#x175;" 
 />
    <glyph glyph-name="Ycircumflex" unicode="&#x176;" 
 />
    <glyph glyph-name="ycircumflex" unicode="&#x177;" 
 />
    <glyph glyph-name="Ydieresis" unicode="&#x178;" horiz-adv-x="1014" 
d="M926 1394l2 -514l-101 -104l-99 103l-2 514l100 103zM293 1393l2 -514l-101 -104l-99 103l-2 514l100 103zM312 857h398l104 -101l-103 -99h-398l-103 100zM632 526v-398l-101 -104l-99 103v398l100 103zM674.5 1611.5q-27.5 -26.5 -66.5 -26.5t-66.5 26.5t-27.5 63.5
t27.5 63t66.5 26t66.5 -26t27.5 -63t-27.5 -63.5zM426.5 1615q-27.5 -26 -66.5 -26t-66.5 26t-27.5 63t27.5 63t66.5 26t66.5 -26t27.5 -63t-27.5 -63z" />
    <glyph glyph-name="Zacute" unicode="&#x179;" 
 />
    <glyph glyph-name="zacute" unicode="&#x17a;" 
 />
    <glyph glyph-name="Zdotaccent" unicode="&#x17b;" 
 />
    <glyph glyph-name="zdotaccent" unicode="&#x17c;" 
 />
    <glyph glyph-name="Zcaron" unicode="&#x17d;" 
 />
    <glyph glyph-name="zcaron" unicode="&#x17e;" 
 />
    <glyph glyph-name="circumflex" unicode="&#x2c6;" horiz-adv-x="1024" 
 />
    <glyph glyph-name="caron" unicode="&#x2c7;" horiz-adv-x="1024" 
 />
    <glyph glyph-name="uni02C9" unicode="&#x2c9;" horiz-adv-x="1024" 
 />
    <glyph glyph-name="breve" unicode="&#x2d8;" horiz-adv-x="1024" 
 />
    <glyph glyph-name="dotaccent" unicode="&#x2d9;" horiz-adv-x="1024" 
 />
    <glyph glyph-name="ring" unicode="&#x2da;" horiz-adv-x="1024" 
 />
    <glyph glyph-name="ogonek" unicode="&#x2db;" horiz-adv-x="1024" 
 />
    <glyph glyph-name="tilde" unicode="&#x2dc;" horiz-adv-x="1024" 
 />
    <glyph glyph-name="hungarumlaut" unicode="&#x2dd;" horiz-adv-x="1024" 
 />
    <glyph glyph-name="endash" unicode="&#x2013;" horiz-adv-x="802" 
d="M209 857h398l104 -101l-103 -99h-398l-103 100z" />
    <glyph glyph-name="emdash" unicode="&#x2014;" horiz-adv-x="802" 
d="M209 857h398l104 -101l-103 -99h-398l-103 100z" />
    <glyph glyph-name="quoteleft" unicode="&#x2018;" horiz-adv-x="392" 
d="M116 1381v27l100 103l100 -102v-116h-2v-74l-101 -104l-99 103v163h2z" />
    <glyph glyph-name="quoteright" unicode="&#x2019;" horiz-adv-x="392" 
d="M116 1381v27l100 103l100 -102v-116h-2v-74l-101 -104l-99 103v163h2z" />
    <glyph glyph-name="quotesinglbase" unicode="&#x201a;" horiz-adv-x="392" 
d="M116 76v27l100 103l100 -102v-116h-2v-74l-101 -104l-99 103v163h2z" />
    <glyph glyph-name="quotedblleft" unicode="&#x201c;" horiz-adv-x="680" 
d="M119 1375v27l100 103l100 -102v-116h-2v-74l-101 -104l-99 103v163h2zM394 1375v27l100 103l100 -102v-116h-2v-74l-101 -104l-99 103v163h2z" />
    <glyph glyph-name="quotedblright" unicode="&#x201d;" horiz-adv-x="680" 
d="M119 1375v27l100 103l100 -102v-116h-2v-74l-101 -104l-99 103v163h2zM394 1375v27l100 103l100 -102v-116h-2v-74l-101 -104l-99 103v163h2z" />
    <glyph glyph-name="quotedblbase" unicode="&#x201e;" horiz-adv-x="680" 
d="M132 77v27l100 103l100 -102v-116h-2v-74l-101 -104l-99 103v163h2zM407 77v27l100 103l100 -102v-116h-2v-74l-101 -104l-99 103v163h2z" />
    <glyph glyph-name="dagger" unicode="&#x2020;" horiz-adv-x="1014" 
 />
    <glyph glyph-name="daggerdbl" unicode="&#x2021;" horiz-adv-x="1014" 
 />
    <glyph glyph-name="bullet" unicode="&#x2022;" horiz-adv-x="402" 
d="M99 915l103 100l100 -102l-2 -109l-101 -104l-99 103z" />
    <glyph glyph-name="ellipsis" unicode="&#x2026;" horiz-adv-x="930" 
d="M97 227l103 100l100 -102l-2 -109l-101 -104l-99 103zM674 236l103 100l100 -102l-2 -109l-101 -104l-99 103zM385 237l103 100l100 -102l-2 -109l-101 -104l-99 103z" />
    <glyph glyph-name="guilsinglleft" unicode="&#x2039;" horiz-adv-x="1021" 
d="M106 815l281 282l145 2l-3 -142l-280 -283l-144 -2zM242 582l286 -277l4 -145l-143 1l-286 277l-4 143zM495 828l281 282l145 2l-3 -142l-280 -283l-144 -2zM631 595l286 -277l4 -145l-143 1l-286 277l-4 143z" />
    <glyph glyph-name="guilsinglright" unicode="&#x203a;" horiz-adv-x="1021" 
d="M106 815l281 282l145 2l-3 -142l-280 -283l-144 -2zM242 582l286 -277l4 -145l-143 1l-286 277l-4 143zM495 828l281 282l145 2l-3 -142l-280 -283l-144 -2zM631 595l286 -277l4 -145l-143 1l-286 277l-4 143z" />
    <glyph glyph-name="fraction" unicode="&#x2044;" horiz-adv-x="853" 
d="M491 605l-203 -528l-131 -61l-56 132l203 527l130 61zM779 1373l-204 -533l-131 -61l-56 132l204 533l130 60z" />
    <glyph glyph-name="fraction" unicode="&#x2215;" horiz-adv-x="853" 
d="M491 605l-203 -528l-131 -61l-56 132l203 527l130 61zM779 1373l-204 -533l-131 -61l-56 132l204 533l130 60z" />
    <glyph glyph-name="franc" unicode="&#x20a3;" horiz-adv-x="1014" 
 />
    <glyph glyph-name="lira" unicode="&#x20a4;" horiz-adv-x="1014" 
 />
    <glyph glyph-name="peseta" unicode="&#x20a7;" horiz-adv-x="2028" 
 />
    <glyph glyph-name="Euro" unicode="&#x20ac;" horiz-adv-x="921" 
d="M316 209h398l104 -101l-103 -99h-398l-103 100zM300 629v-398l-101 -104l-99 103v398l100 103zM295 1277v-398l-101 -104l-99 103v398l100 103zM315 1498h398l104 -101l-103 -99h-398l-103 100zM418 1017h281l104 -101l-103 -99h-281l-103 100zM717 529h-281l-104 101
l103 99h281l103 -100z" />
    <glyph glyph-name="afii61352" unicode="&#x2116;" horiz-adv-x="2271" 
 />
    <glyph glyph-name="trademark" unicode="&#x2122;" horiz-adv-x="1497" 
 />
    <glyph glyph-name="partialdiff" unicode="&#x2202;" horiz-adv-x="1014" 
d="M119 1572l-19 13l21 26zM177 -634l-19 13l21 26z" />
    <glyph glyph-name="Delta" unicode="&#x2206;" horiz-adv-x="1081" 
 />
    <glyph glyph-name="product" unicode="&#x220f;" horiz-adv-x="1515" 
 />
    <glyph glyph-name="summation" unicode="&#x2211;" horiz-adv-x="1206" 
 />
    <glyph glyph-name="minus" unicode="&#x2212;" horiz-adv-x="802" 
d="M209 857h398l104 -101l-103 -99h-398l-103 100z" />
    <glyph glyph-name="radical" unicode="&#x221a;" horiz-adv-x="1014" 
 />
    <glyph glyph-name="infinity" unicode="&#x221e;" horiz-adv-x="1014" 
 />
    <glyph glyph-name="integral" unicode="&#x222b;" horiz-adv-x="665" 
 />
    <glyph glyph-name="approxequal" unicode="&#x2248;" horiz-adv-x="1014" 
 />
    <glyph glyph-name="lessequal" unicode="&#x2264;" horiz-adv-x="1014" 
 />
    <glyph glyph-name="greaterequal" unicode="&#x2265;" horiz-adv-x="1014" 
 />
    <glyph glyph-name="uniF001" unicode="&#xf001;" horiz-adv-x="1073" 
 />
    <glyph glyph-name="uniF001" unicode="&#xfb01;" horiz-adv-x="1073" 
 />
    <glyph glyph-name="uniF002" unicode="&#xf002;" horiz-adv-x="1081" 
 />
    <glyph glyph-name="uniF002" unicode="&#xfb02;" horiz-adv-x="1081" 
 />
  </font>
</defs>
</svg>
